<svg width="158" height="21" viewBox="0 0 158 21" fill="none" xmlns="http://www.w3.org/2000/svg">
<mask id="mask0_0_1" style="mask-type:luminance" maskUnits="userSpaceOnUse" x="0" y="0" width="94" height="21">
<path d="M94 0H0V20.4483H94V0Z" fill="white"/>
</mask>
<g mask="url(#mask0_0_1)">
<path d="M31.5985 3.6905H35.7075L35.2191 6.02754C35.0657 6.77266 34.449 7.69781 34.1406 8.23623C34.0372 8.46793 33.9856 8.64796 34.2173 8.74965C34.474 8.853 34.679 8.59629 34.7057 8.51794C36.0926 5.9742 38.5846 3.2771 41.4101 3.2771C44.4922 3.2771 44.4156 5.28076 43.5421 9.44142L41.8718 17.251H37.7612L39.2264 10.3666C39.8165 7.6178 39.9198 6.66765 38.8413 6.66765C37.3778 6.66765 33.9356 12.0886 33.1638 15.6325L32.8304 17.251H28.7197L31.5969 3.68884L31.5985 3.6905Z" fill="black"/>
<path d="M53.51 3.28048C56.4905 3.28048 58.8792 4.95075 58.4925 7.23611C57.9024 10.4983 53.6117 11.8085 48.2692 11.8085C48.2942 12.9387 48.7326 14.3773 51.0429 14.3773C52.4048 14.3773 53.715 13.5288 54.1518 12.527H58.1591C57.0806 15.3775 54.0234 17.6645 50.5812 17.6645C45.5471 17.6645 43.8251 14.4023 44.5452 10.4717C45.2637 6.36097 48.7326 3.27881 53.51 3.27881V3.28048ZM54.3318 7.46615C54.4352 6.79771 53.7934 6.25929 52.8166 6.25929C50.4279 6.25929 49.1427 7.92956 48.6559 9.34145C52.1498 9.34145 54.0751 8.95639 54.3318 7.46615Z" fill="black"/>
<path d="M59.7777 8.39135L60.7795 3.69059H64.8902L63.9917 7.90293C63.0416 12.4504 62.9899 14.0673 64.0434 14.0673C65.3286 14.0673 66.9972 11.2168 68.5908 3.68893H72.7014L71.3395 9.85326C70.6978 12.7821 70.4411 14.0656 71.5196 14.0656C73.0348 14.0656 74.9868 10.3417 76.4003 3.68726H80.5093C79.1991 10.7001 75.2185 17.4562 70.7995 17.4562C68.9492 17.4562 68.0757 15.9926 68.5391 13.3455C68.5641 13.1922 68.5641 12.9338 68.2307 12.9338C67.8973 12.9338 67.7423 13.2422 67.6906 13.3455C66.3554 16.2743 64.5301 17.4562 62.7082 17.4562C60.1644 17.4562 58.3675 15.1191 59.7794 8.38801L59.7777 8.39135Z" fill="black"/>
<path d="M93.8649 10.4717C93.1465 14.4273 89.8576 17.6645 85.3886 17.6645C80.9195 17.6645 78.7608 14.4273 79.481 10.4717C80.1994 6.516 83.4883 3.27881 87.9573 3.27881C92.4264 3.27881 94.585 6.516 93.8649 10.4717ZM89.7543 10.4717C90.1143 8.46798 89.3692 6.7727 87.3406 6.7727C85.3119 6.7727 83.95 8.46798 83.5899 10.4717C83.2299 12.4753 83.975 14.1706 86.0053 14.1706C88.0357 14.1706 89.3959 12.4753 89.7559 10.4717H89.7543Z" fill="black"/>
<mask id="mask1_0_1" style="mask-type:luminance" maskUnits="userSpaceOnUse" x="4" y="0" width="16" height="21">
<path d="M5.86301 0.730243C6.98485 0.000126719 8.48676 0.316844 9.21521 1.43868L18.7367 16.3661C19.4668 17.488 19.1501 18.9882 18.0283 19.7183C16.9064 20.4484 15.4062 20.1317 14.6761 19.0099L5.15456 4.08244C4.42444 2.96059 4.74116 1.46035 5.86301 0.730243Z" fill="white"/>
</mask>
<g mask="url(#mask1_0_1)">
<path d="M5.29328 0L4.4248 4.10399V0H5.29328Z" fill="#39006B"/>
<path d="M5.35995 0L4.4248 4.42071V4.10399L5.29328 0H5.35995Z" fill="#39006B"/>
<path d="M5.42663 0L4.4248 4.7391V4.42071L5.35995 0H5.42663Z" fill="#3A006D"/>
<path d="M5.49498 0L4.4248 5.05581V4.7391L5.42663 0H5.49498Z" fill="#3B016F"/>
<path d="M5.56165 0L4.4248 5.37253V5.05581L5.49498 0H5.56165Z" fill="#3B0170"/>
<path d="M5.62833 0L4.4248 5.69091V5.37253L5.56165 0H5.62833Z" fill="#3C0172"/>
<path d="M5.69501 0L4.4248 6.00763V5.69091L5.62833 0H5.69501Z" fill="#3D0174"/>
<path d="M5.76335 0L4.4248 6.32435V6.00763L5.69501 0H5.76335Z" fill="#3E0276"/>
<path d="M5.83003 0L4.4248 6.64107V6.32435L5.76335 0H5.83003Z" fill="#3F0278"/>
<path d="M5.89671 0L4.4248 6.95944V6.64107L5.83003 0H5.89671Z" fill="#400279"/>
<path d="M5.96338 0L4.4248 7.27617V6.95944L5.89671 0H5.96338Z" fill="#40037B"/>
<path d="M6.03006 0L4.4248 7.59288V7.27617L5.96338 0H6.03006Z" fill="#41037D"/>
<path d="M6.09841 0L4.4248 7.9096V7.59288L6.03006 0H6.09841Z" fill="#42037F"/>
<path d="M6.16508 0L4.4248 8.22797V7.9096L6.09841 0H6.16508Z" fill="#430380"/>
<path d="M6.23176 0L4.4248 8.54469V8.22797L6.16508 0H6.23176Z" fill="#430482"/>
<path d="M6.29844 0L4.4248 8.86141V8.54469L6.23176 0H6.29844Z" fill="#440484"/>
<path d="M6.36678 0L4.4248 9.17979V8.86141L6.29844 0H6.36678Z" fill="#450485"/>
<path d="M6.43347 0L4.4248 9.49651V9.17979L6.36678 0H6.43347Z" fill="#460587"/>
<path d="M6.50014 0L4.4248 9.81323V9.49651L6.43347 0H6.50014Z" fill="#460589"/>
<path d="M6.56681 0L4.4248 10.13V9.81323L6.50014 0H6.56681Z" fill="#47058A"/>
<path d="M6.63516 0L4.4248 10.4484V10.13L6.56681 0H6.63516Z" fill="#48058C"/>
<path d="M6.70183 0L4.4248 10.7651V10.4484L6.63516 0H6.70183Z" fill="#49068E"/>
<path d="M6.76851 0L4.4248 11.0818V10.7651L6.70183 0H6.76851Z" fill="#49068F"/>
<path d="M6.83519 0L4.4248 11.4002V11.0818L6.76851 0H6.83519Z" fill="#4A0691"/>
<path d="M6.90187 0L4.4248 11.7169V11.4002L6.83519 0H6.90187Z" fill="#4B0692"/>
<path d="M6.97021 0L4.4248 12.0336V11.7169L6.90187 0H6.97021Z" fill="#4C0794"/>
<path d="M7.03689 0L4.4248 12.3503V12.0336L6.97021 0H7.03689Z" fill="#4C0796"/>
<path d="M7.10357 0L4.4248 12.6687V12.3503L7.03689 0H7.10357Z" fill="#4D0797"/>
<path d="M7.17024 0L4.4248 12.9855V12.6687L7.10357 0H7.17024Z" fill="#4E0799"/>
<path d="M7.23859 0L4.4248 13.3022V12.9855L7.17024 0H7.23859Z" fill="#4E089A"/>
<path d="M7.30526 0L4.4248 13.6189V13.3022L7.23859 0H7.30526Z" fill="#4F089C"/>
<path d="M7.37194 0L4.4248 13.9373V13.6189L7.30526 0H7.37194Z" fill="#50089D"/>
<path d="M7.43862 0L4.4248 14.254V13.9373L7.37194 0H7.43862Z" fill="#50089F"/>
<path d="M7.50696 0L4.4248 14.5707V14.254L7.43862 0H7.50696Z" fill="#5109A0"/>
<path d="M7.57364 0L4.4248 14.8891V14.5707L7.50696 0H7.57364Z" fill="#5209A2"/>
<path d="M7.64032 0L4.4248 15.2058V14.8891L7.57364 0H7.64032Z" fill="#5209A3"/>
<path d="M7.707 0L4.4248 15.5225V15.2058L7.64032 0H7.707Z" fill="#5309A5"/>
<path d="M7.77367 0L4.4248 15.8392V15.5225L7.707 0H7.77367Z" fill="#540AA6"/>
<path d="M7.84202 0L4.4248 16.1576V15.8392L7.77367 0H7.84202Z" fill="#540AA8"/>
<path d="M7.90869 0L4.4248 16.4743V16.1576L7.84202 0H7.90869Z" fill="#550AA9"/>
<path d="M7.97537 0L4.4248 16.7911V16.4743L7.90869 0H7.97537Z" fill="#560AAA"/>
<path d="M8.04206 0L4.4248 17.1094V16.7911L7.97537 0H8.04206Z" fill="#560BAC"/>
<path d="M8.11039 0L4.4248 17.4262V17.1094L8.04206 0H8.11039Z" fill="#570BAD"/>
<path d="M8.17707 0L4.4248 17.7429V17.4262L8.11039 0H8.17707Z" fill="#580BAF"/>
<path d="M8.24375 0L4.4248 18.0596V17.7429L8.17707 0H8.24375Z" fill="#580BB0"/>
<path d="M8.31042 0L4.47148 18.1596L4.4248 18.1496V18.0596L8.24375 0H8.31042Z" fill="#590BB1"/>
<path d="M8.37897 0L4.53502 18.1729L4.47168 18.1596L8.31063 0H8.37897Z" fill="#590CB3"/>
<path d="M8.44578 0L4.60017 18.1863L4.53516 18.1729L8.3791 0H8.44578Z" fill="#5A0CB4"/>
<path d="M8.5119 0L4.66295 18.2013L4.59961 18.1863L8.44522 0H8.5119Z" fill="#5B0CB5"/>
<path d="M8.57871 0L4.7281 18.2146L4.66309 18.2013L8.51203 0H8.57871Z" fill="#5B0CB7"/>
<path d="M8.59747 0L8.64414 0.010002L4.79186 18.228L4.72852 18.2146L8.57913 0H8.59747Z" fill="#5C0DB8"/>
<path d="M8.6445 0.0100098L4.79199 18.2285L4.8556 18.2419L8.70811 0.0234598L8.6445 0.0100098Z" fill="#5C0DB9"/>
<path d="M8.70895 0.0241699L4.85645 18.2426L4.92005 18.2561L8.77256 0.0376199L8.70895 0.0241699Z" fill="#5D0DBA"/>
<path d="M8.77439 0.0366211L4.92188 18.2551L4.98548 18.2685L8.83799 0.0500711L8.77439 0.0366211Z" fill="#5E0DBC"/>
<path d="M8.83689 0.0507812L4.98438 18.2692L5.04798 18.2827L8.90049 0.0642312L8.83689 0.0507812Z" fill="#5E0DBD"/>
<path d="M8.90134 0.0632324L5.04883 18.2817L5.11243 18.2951L8.96494 0.0766824L8.90134 0.0632324Z" fill="#5F0EBE"/>
<path d="M8.96579 0.0776367L5.11328 18.2961L5.17689 18.3095L9.0294 0.0910867L8.96579 0.0776367Z" fill="#5F0EBF"/>
<path d="M9.03122 0.090332L5.17871 18.3088L5.24231 18.3222L9.09483 0.103782L9.03122 0.090332Z" fill="#600EC1"/>
<path d="M9.09372 0.104248L5.24121 18.3227L5.30481 18.3361L9.15733 0.117698L9.09372 0.104248Z" fill="#600EC2"/>
<path d="M9.15817 0.118408L5.30566 18.3369L5.36927 18.3503L9.22178 0.131858L9.15817 0.118408Z" fill="#610EC3"/>
<path d="M9.22263 0.132568L5.37012 18.351L5.43372 18.3645L9.28623 0.146018L9.22263 0.132568Z" fill="#610FC4"/>
<path d="M9.2861 0.145264L5.43359 18.3637L5.4972 18.3772L9.34971 0.158713L9.2861 0.145264Z" fill="#620FC5"/>
<path d="M9.35056 0.15918L5.49805 18.3776L5.56165 18.3911L9.41416 0.17263L9.35056 0.15918Z" fill="#620FC6"/>
<path d="M9.41501 0.172119L5.5625 18.3906L5.6261 18.404L9.47861 0.185569L9.41501 0.172119Z" fill="#630FC8"/>
<path d="M9.48044 0.186279L5.62793 18.4047L5.69153 18.4182L9.54404 0.199729L9.48044 0.186279Z" fill="#640FC9"/>
<path d="M9.54294 0.19873L5.69043 18.4172L5.75403 18.4306L9.60654 0.21218L9.54294 0.19873Z" fill="#640FCA"/>
<path d="M9.60739 0.2146L5.75488 18.4331L5.81849 18.4465L9.671 0.22805L9.60739 0.2146Z" fill="#6510CB"/>
<path d="M9.67282 0.227051L5.82031 18.4455L5.88392 18.459L9.73643 0.240501L9.67282 0.227051Z" fill="#6510CC"/>
<path d="M9.73532 0.241211L5.88281 18.4597L5.94642 18.4731L9.79893 0.254661L9.73532 0.241211Z" fill="#6610CD"/>
<path d="M9.79978 0.253662L5.94727 18.4721L6.01087 18.4856L9.86338 0.267112L9.79978 0.253662Z" fill="#6610CE"/>
<path d="M9.86423 0.268066L6.01172 18.4865L6.07532 18.5L9.92783 0.281515L9.86423 0.268066Z" fill="#6610CF"/>
<path d="M9.92966 0.280762L6.07715 18.4992L6.14075 18.5127L9.99326 0.294212L9.92966 0.280762Z" fill="#6711D0"/>
<path d="M9.99411 0.294922L6.1416 18.5134L6.20521 18.5268L10.0577 0.308372L9.99411 0.294922Z" fill="#6711D1"/>
<path d="M10.0576 0.309082L6.20508 18.5275L6.26868 18.541L10.1212 0.322532L10.0576 0.309082Z" fill="#6811D2"/>
<path d="M10.122 0.321533L6.26953 18.54L6.33314 18.5534L10.1856 0.334983L10.122 0.321533Z" fill="#6811D3"/>
<path d="M10.1845 0.335693L6.33203 18.5541L6.39564 18.5676L10.2481 0.349143L10.1845 0.335693Z" fill="#6911D4"/>
<path d="M10.25 0.348145L6.39746 18.5666L6.46106 18.58L10.3136 0.361594L10.25 0.348145Z" fill="#6911D5"/>
<path d="M10.3144 0.362549L6.46191 18.581L6.52552 18.5944L10.378 0.375999L10.3144 0.362549Z" fill="#6A11D6"/>
<path d="M10.3789 0.375L6.52637 18.5935L6.58997 18.6069L10.4425 0.38845L10.3789 0.375Z" fill="#6A12D7"/>
<path d="M10.4433 0.38916L6.59082 18.6076L6.65442 18.6211L10.5069 0.40261L10.4433 0.38916Z" fill="#6B12D8"/>
<path d="M10.5068 0.401611L6.6543 18.6201L6.7179 18.6335L10.5704 0.415061L10.5068 0.401611Z" fill="#6B12D9"/>
<path d="M10.5713 0.41748L6.71875 18.6359L6.78235 18.6494L10.6349 0.43093L10.5713 0.41748Z" fill="#6B12DA"/>
<path d="M10.6338 0.429932L6.78125 18.6484L6.84485 18.6618L10.6974 0.443381L10.6338 0.429932Z" fill="#6C12DB"/>
<path d="M10.6982 0.444092L6.8457 18.6625L6.90931 18.676L10.7618 0.457542L10.6982 0.444092Z" fill="#6C12DC"/>
<path d="M10.7617 0.456543L6.90918 18.675L6.97278 18.6884L10.8253 0.469993L10.7617 0.456543Z" fill="#6D13DD"/>
<path d="M10.8281 0.471191L6.97559 18.6896L7.03919 18.7031L10.8917 0.484641L10.8281 0.471191Z" fill="#7917F7"/>
<path d="M10.8925 0.483643L7.04004 18.7021L7.10364 18.7155L10.9562 0.497092L10.8925 0.483643Z" fill="#7917F7"/>
<path d="M10.956 0.497803L7.10352 18.7163L7.16712 18.7297L11.0196 0.511253L10.956 0.497803Z" fill="#6E13DF"/>
<path d="M11.0205 0.511963L7.16797 18.7304L7.23157 18.7439L11.0841 0.525413L11.0205 0.511963Z" fill="#6E13E0"/>
<path d="M11.083 0.526123L7.23047 18.7446L7.29407 18.758L11.1466 0.539573L11.083 0.526123Z" fill="#6F13E1"/>
<path d="M11.1484 0.538574L7.2959 18.757L7.3595 18.7705L11.212 0.552024L11.1484 0.538574Z" fill="#7917F7"/>
<path d="M11.2129 0.552734L7.36035 18.7712L7.42396 18.7846L11.2765 0.566184L11.2129 0.552734Z" fill="#7917F7"/>
<path d="M11.2773 0.56543L7.4248 18.7839L7.48841 18.7973L11.3409 0.578879L11.2773 0.56543Z" fill="#7014E3"/>
<path d="M11.3418 0.57959L7.48926 18.798L7.55286 18.8115L11.4054 0.59304L11.3418 0.57959Z" fill="#7014E4"/>
<path d="M11.4052 0.592041L7.55273 18.8105L7.61634 18.8239L11.4688 0.605491L11.4052 0.592041Z" fill="#7014E5"/>
<path d="M11.4697 0.606201L7.61719 18.8247L7.68079 18.8381L11.5333 0.619651L11.4697 0.606201Z" fill="#7917F7"/>
<path d="M11.5332 0.620361L7.68066 18.8388L7.74427 18.8523L11.5968 0.633811L11.5332 0.620361Z" fill="#7917F7"/>
<path d="M11.5976 0.634521L7.74512 18.853L7.80872 18.8664L11.6612 0.647972L11.5976 0.634521Z" fill="#7114E7"/>
<path d="M11.6621 0.646973L7.80957 18.8654L7.87317 18.8789L11.7257 0.660422L11.6621 0.646973Z" fill="#7917F7"/>
<path d="M11.7265 0.661621L7.87402 18.8801L7.93763 18.8935L11.7901 0.675071L11.7265 0.661621Z" fill="#7917F7"/>
<path d="M11.791 0.674072L7.93848 18.8925L8.00208 18.906L11.8546 0.687522L11.791 0.674072Z" fill="#7215E9"/>
<path d="M11.8545 0.688232L8.00195 18.9067L8.06556 18.9201L11.9181 0.701682L11.8545 0.688232Z" fill="#7917F7"/>
<path d="M11.9189 0.700684L8.06641 18.9191L8.13001 18.9326L11.9825 0.714133L11.9189 0.700684Z" fill="#7917F7"/>
<path d="M11.9814 0.716553L8.12891 18.935L8.19251 18.9485L12.045 0.730003L11.9814 0.716553Z" fill="#7315EB"/>
<path d="M12.0468 0.729004L8.19434 18.9475L8.25794 18.9609L12.1105 0.742454L12.0468 0.729004Z" fill="#7315EC"/>
<path d="M12.1113 0.743164L8.25879 18.9616L8.32239 18.9751L12.1749 0.756614L12.1113 0.743164Z" fill="#7415EC"/>
<path d="M12.1758 0.755859L8.32324 18.9743L8.38685 18.9878L12.2394 0.769309L12.1758 0.755859Z" fill="#7917F7"/>
<path d="M12.2402 0.77002L8.3877 18.9885L8.45129 19.0019L12.3038 0.783469L12.2402 0.77002Z" fill="#7917F7"/>
<path d="M12.3037 0.782715L8.45117 19.0012L8.51478 19.0146L12.3673 0.796165L12.3037 0.782715Z" fill="#7415EE"/>
<path d="M12.3681 0.796631L8.51562 19.0151L8.57924 19.0285L12.4317 0.810081L12.3681 0.796631Z" fill="#7515EE"/>
<path d="M12.4316 0.809326L8.5791 19.0278L8.64271 19.0412L12.4952 0.822776L12.4316 0.809326Z" fill="#7516EF"/>
<path d="M12.4961 0.824951L8.64355 19.0434L8.70716 19.0569L12.5597 0.838398L12.4961 0.824951Z" fill="#7917F7"/>
<path d="M12.5605 0.837646L8.70801 19.0561L8.77161 19.0695L12.6241 0.851097L12.5605 0.837646Z" fill="#7917F7"/>
<path d="M12.625 0.852051L8.77246 19.0705L8.83607 19.084L12.6886 0.865501L12.625 0.852051Z" fill="#7917F7"/>
<path d="M12.6904 0.864502L8.83789 19.083L8.90149 19.0964L12.754 0.877952L12.6904 0.864502Z" fill="#7917F7"/>
<path d="M12.7529 0.878662L8.90039 19.0971L8.964 19.1106L12.8165 0.892112L12.7529 0.878662Z" fill="#7917F7"/>
<path d="M12.8174 0.891113L8.96484 19.1096L9.02845 19.123L12.881 0.904563L12.8174 0.891113Z" fill="#7917F7"/>
<path d="M12.8818 0.905273L9.0293 19.1237L9.0929 19.1372L12.9454 0.918723L12.8818 0.905273Z" fill="#7917F7"/>
<path d="M12.9453 0.919434L9.09277 19.1379L9.15638 19.1513L13.0089 0.932884L12.9453 0.919434Z" fill="#7917F7"/>
<path d="M13.0097 0.933594L9.15723 19.152L9.22083 19.1655L13.0733 0.947044L13.0097 0.933594Z" fill="#7917F7"/>
<path d="M13.0742 0.946289L9.22168 19.1647L9.28528 19.1782L13.1378 0.959739L13.0742 0.946289Z" fill="#7917F7"/>
<path d="M13.1386 0.960449L9.28613 19.1789L9.34974 19.1924L13.2022 0.973899L13.1386 0.960449Z" fill="#7917F7"/>
<path d="M13.2021 0.9729L9.34961 19.1914L9.41321 19.2048L13.2657 0.98635L13.2021 0.9729Z" fill="#7917F7"/>
<path d="M13.2666 0.987061L9.41406 19.2055L9.47767 19.219L13.3302 1.00051L13.2666 0.987061Z" fill="#7716F5"/>
<path d="M13.332 0.999756L9.47949 19.2182L9.5431 19.2317L13.3956 1.01321L13.332 0.999756Z" fill="#2C6C54"/>
<path d="M13.3945 1.01392L9.54199 19.2324L9.6056 19.2458L13.4581 1.02737L13.3945 1.01392Z" fill="#2C6C54"/>
<path d="M13.459 1.02808L9.60645 19.2465L9.67004 19.26L13.5226 1.04153L13.459 1.02808Z" fill="#7917F7"/>
<path d="M13.5234 1.04248L9.6709 19.2609L9.7345 19.2744L13.587 1.05593L13.5234 1.04248Z" fill="#7917F7"/>
<path d="M13.5888 1.05493L9.73633 19.2734L9.79993 19.2868L13.6524 1.06838L13.5888 1.05493Z" fill="#7917F7"/>
<path d="M13.6513 1.06738L9.79883 19.2858L9.86243 19.2993L13.7149 1.08083L13.6513 1.06738Z" fill="#7917F7"/>
<path d="M13.7158 1.08154L9.86328 19.3L9.92689 19.3134L13.7794 1.09499L13.7158 1.08154Z" fill="#7817F7"/>
<path d="M13.7812 1.09399L9.92871 19.3124L9.99231 19.3259L13.8448 1.10744L13.7812 1.09399Z" fill="#7817F7"/>
<path d="M13.8437 1.10815L9.99121 19.3266L10.0548 19.3401L13.9073 1.1216L13.8437 1.10815Z" fill="#7917F7"/>
<path d="M13.9082 1.12231L10.0557 19.3408L10.1193 19.3542L13.9718 1.13576L13.9082 1.12231Z" fill="#7917F7"/>
<path d="M13.9726 1.13672L10.1201 19.3552L10.1837 19.3686L14.0362 1.15017L13.9726 1.13672Z" fill="#7917F7"/>
<path d="M14.0381 1.14941L10.1855 19.3679L10.2492 19.3813L14.1017 1.16286L14.0381 1.14941Z" fill="#7917F7"/>
<path d="M14.1006 1.16357L10.248 19.382L10.3117 19.3955L14.1642 1.17702L14.1006 1.16357Z" fill="#7917F7"/>
<path d="M14.166 1.17603L10.3135 19.3945L10.3771 19.4079L14.2296 1.18948L14.166 1.17603Z" fill="#7917F7"/>
<path d="M14.2304 1.19019L10.3779 19.4086L10.4415 19.4221L14.294 1.20364L14.2304 1.19019Z" fill="#7917F7"/>
<path d="M14.2929 1.20264L10.4404 19.4211L10.504 19.4345L14.3565 1.21609L14.2929 1.20264Z" fill="#7917F7"/>
<path d="M14.3574 1.2168L10.5049 19.4352L10.5685 19.4487L14.421 1.23025L14.3574 1.2168Z" fill="#7917F7"/>
<path d="M14.4228 1.2312L10.5703 19.4497L10.6339 19.4631L14.4864 1.24464L14.4228 1.2312Z" fill="#7917F7"/>
<path d="M14.4853 1.24536L10.6328 19.4638L10.6948 19.4769L14.5473 1.25847L14.4853 1.24536Z" fill="#7917F7"/>
<path d="M14.5478 1.25781L10.6953 19.4763L10.7573 19.4894L14.6098 1.27092L14.5478 1.25781Z" fill="#7918F8"/>
<path d="M14.6103 1.27197L10.7578 19.4904L10.8198 19.5035L14.6723 1.28507L14.6103 1.27197Z" fill="#7A19F8"/>
<path d="M14.6728 1.28442L10.8203 19.5029L10.8823 19.516L14.7348 1.29753L14.6728 1.28442Z" fill="#7A1AF8"/>
<path d="M14.7334 1.29663L10.8809 19.5151L10.9428 19.5282L14.7953 1.30974L14.7334 1.29663Z" fill="#7B1BF8"/>
<path d="M14.7939 1.31055L10.9414 19.529L11.0034 19.5421L14.8559 1.32366L14.7939 1.31055Z" fill="#7B1CF8"/>
<path d="M14.8564 1.323L11.0039 19.5414L11.0659 19.5546L14.9184 1.3361L14.8564 1.323Z" fill="#7B1DF8"/>
<path d="M14.917 1.33545L11.0645 19.5539L11.1264 19.567L14.9789 1.34856L14.917 1.33545Z" fill="#7C1EF8"/>
<path d="M14.9795 1.34937L11.127 19.5678L11.1889 19.5809L15.0414 1.36247L14.9795 1.34937Z" fill="#7C1FF8"/>
<path d="M15.042 1.36182L11.1895 19.5803L11.2514 19.5934L15.1039 1.37492L15.042 1.36182Z" fill="#7D20F9"/>
<path d="M15.1035 1.37427L11.251 19.5927L11.3129 19.6058L15.1655 1.38737L15.1035 1.37427Z" fill="#7D21F9"/>
<path d="M15.164 1.38794L11.3115 19.6064L11.3735 19.6195L15.226 1.40105L15.164 1.38794Z" fill="#7E22F9"/>
<path d="M15.2265 1.40039L11.374 19.6188L11.436 19.6319L15.2885 1.4135L15.2265 1.40039Z" fill="#7E23F9"/>
<path d="M15.2871 1.41455L11.4346 19.633L11.4965 19.6461L15.3491 1.42766L15.2871 1.41455Z" fill="#7E24F9"/>
<path d="M15.3496 1.427L11.4971 19.6455L11.559 19.6586L15.4116 1.44011L15.3496 1.427Z" fill="#7F25F9"/>
<path d="M15.4121 1.43945L11.5596 19.6579L11.6215 19.671L15.4741 1.45255L15.4121 1.43945Z" fill="#7F26F9"/>
<path d="M15.4717 1.45312L11.6191 19.6716L11.6811 19.6847L15.5336 1.46623L15.4717 1.45312Z" fill="#8027F9"/>
<path d="M15.5342 1.46558L11.6816 19.684L11.7436 19.6971L15.5961 1.47868L15.5342 1.46558Z" fill="#8028F9"/>
<path d="M15.5967 1.47803L11.7441 19.6965L11.8061 19.7096L15.6586 1.49114L15.5967 1.47803Z" fill="#8029F9"/>
<path d="M15.6572 1.49219L11.8047 19.7106L11.8667 19.7237L15.7192 1.50529L15.6572 1.49219Z" fill="#812AF9"/>
<path d="M15.7197 1.50464L11.8672 19.7231L11.9292 19.7362L15.7817 1.51775L15.7197 1.50464Z" fill="#812BF9"/>
<path d="M15.7802 1.5166L11.9277 19.7351L11.9897 19.7482L15.8422 1.5297L15.7802 1.5166Z" fill="#822CF9"/>
<path d="M15.8418 1.53076L11.9893 19.7492L12.0512 19.7623L15.9037 1.54387L15.8418 1.53076Z" fill="#822DF9"/>
<path d="M15.9043 1.54321L12.0518 19.7617L12.1137 19.7748L15.9662 1.55632L15.9043 1.54321Z" fill="#822EF9"/>
<path d="M15.9668 1.55713L12.1143 19.7756L12.1762 19.7887L16.0287 1.57024L15.9668 1.55713Z" fill="#832FF9"/>
<path d="M16.0263 1.57129L12.1738 19.7897L12.2358 19.8028L16.0883 1.5844L16.0263 1.57129Z" fill="#8330F9"/>
<path d="M16.0888 1.58374L12.2363 19.8022L12.2983 19.8153L16.1508 1.59685L16.0888 1.58374Z" fill="#8431F9"/>
<path d="M16.1504 1.59741L12.2979 19.8159L12.3598 19.829L16.2123 1.61052L16.1504 1.59741Z" fill="#8432FA"/>
<path d="M16.2109 1.60986L12.3584 19.8283L12.4204 19.8414L16.2729 1.62296L16.2109 1.60986Z" fill="#8533FA"/>
<path d="M16.2734 1.62231L12.4209 19.8408L12.4829 19.8539L16.3354 1.63542L16.2734 1.62231Z" fill="#8534FA"/>
<path d="M16.3359 1.63647L12.4834 19.8549L12.5454 19.868L16.3979 1.64957L16.3359 1.63647Z" fill="#8535FA"/>
<path d="M16.3965 1.64893L12.5439 19.8674L12.6059 19.8805L16.4584 1.66203L16.3965 1.64893Z" fill="#8636FA"/>
<path d="M16.458 1.66089L12.6055 19.8793L12.6674 19.8924L16.52 1.67399L16.458 1.66089Z" fill="#8637FA"/>
<path d="M16.5205 1.67505L12.668 19.8935L12.7299 19.9066L16.5825 1.68816L16.5205 1.67505Z" fill="#8738FA"/>
<path d="M16.581 1.6875L12.7285 19.906L12.7905 19.9191L16.643 1.70061L16.581 1.6875Z" fill="#8739FA"/>
<path d="M16.6435 1.70166L12.791 19.9201L12.853 19.9332L16.7055 1.71477L16.6435 1.70166Z" fill="#873AFA"/>
<path d="M16.706 1.71387L12.8535 19.9323L12.9155 19.9454L16.768 1.72697L16.706 1.71387Z" fill="#883BFA"/>
<path d="M16.7666 1.72632L12.9141 19.9448L12.976 19.9579L16.8285 1.73943L16.7666 1.72632Z" fill="#883CFA"/>
<path d="M16.8271 1.74023L12.9746 19.9587L13.0366 19.9718L16.8891 1.75333L16.8271 1.74023Z" fill="#893DFA"/>
<path d="M16.8896 1.75269L13.0371 19.9711L13.0991 19.9842L16.9516 1.76579L16.8896 1.75269Z" fill="#893EFA"/>
<path d="M16.9511 1.76514L13.0986 19.9836L13.1606 19.9967L17.0131 1.77824L16.9511 1.76514Z" fill="#8A3FFA"/>
<path d="M17.0136 1.77905L13.1611 19.9975L13.2231 20.0106L17.0756 1.79215L17.0136 1.77905Z" fill="#8A40FA"/>
<path d="M17.0761 1.7915L13.2236 20.01L13.2856 20.0231L17.1381 1.80461L17.0761 1.7915Z" fill="#8A41FA"/>
<path d="M17.1347 1.80542L13.2822 20.0239L13.3442 20.037L17.1967 1.81853L17.1347 1.80542Z" fill="#8B42FA"/>
<path d="M17.1972 1.81763L13.3447 20.0361L13.4067 20.0492L17.2592 1.83074L17.1972 1.81763Z" fill="#8B43FA"/>
<path d="M17.2597 1.83008L13.4072 20.0485L13.4692 20.0616L17.3217 1.84318L17.2597 1.83008Z" fill="#8C44FB"/>
<path d="M17.3203 1.84424L13.4678 20.0627L13.5297 20.0758L17.3823 1.85735L17.3203 1.84424Z" fill="#8C45FB"/>
<path d="M17.3828 1.85669L13.5303 20.0751L13.5922 20.0882L17.4448 1.8698L17.3828 1.85669Z" fill="#8C46FB"/>
<path d="M17.4453 1.86914L13.5928 20.0876L13.6547 20.1007L17.5073 1.88225L17.4453 1.86914Z" fill="#8D47FB"/>
<path d="M17.5049 1.88281L13.6523 20.1013L13.7143 20.1144L17.5668 1.89592L17.5049 1.88281Z" fill="#8D48FB"/>
<path d="M17.5674 1.89526L13.7148 20.1137L13.7768 20.1268L17.6293 1.90836L17.5674 1.89526Z" fill="#8E49FB"/>
<path d="M17.6299 1.90771L13.7773 20.1262L13.8393 20.1393L17.6918 1.92082L17.6299 1.90771Z" fill="#8E4AFB"/>
<path d="M17.6904 1.92188L13.8379 20.1403L13.8999 20.1534L17.7524 1.93498L17.6904 1.92188Z" fill="#8E4BFB"/>
<path d="M17.7529 1.93579L13.9004 20.1542L13.9624 20.1673L17.8149 1.9489L17.7529 1.93579Z" fill="#8F4CFB"/>
<path d="M17.8134 1.94971L13.9609 20.1682L14.0229 20.1813L17.8754 1.96282L17.8134 1.94971Z" fill="#8F4DFB"/>
<path d="M17.874 1.96191L14.0215 20.1804L14.0835 20.1935L17.936 1.97502L17.874 1.96191Z" fill="#904EFB"/>
<path d="M17.9365 1.97437L14.084 20.1928L14.146 20.2059L17.9985 1.98747L17.9365 1.97437Z" fill="#904FFB"/>
<path d="M17.999 1.98853L14.1465 20.207L14.2085 20.2201L18.061 2.00163L17.999 1.98853Z" fill="#9150FB"/>
<path d="M18.0605 2.00098L14.208 20.2194L14.27 20.2325L18.1225 2.01408L18.0605 2.00098Z" fill="#9151FB"/>
<path d="M18.1211 2.01318L14.2686 20.2316L14.3305 20.2447L18.183 2.02629L18.1211 2.01318Z" fill="#9152FB"/>
<path d="M18.1836 2.0271L14.3311 20.2456L14.393 20.2587L18.2455 2.04021L18.1836 2.0271Z" fill="#9253FB"/>
<path d="M18.2441 2.03955L14.3916 20.258L14.4536 20.2711L18.3061 2.05266L18.2441 2.03955Z" fill="#9254FB"/>
<path d="M18.3066 2.052L14.4541 20.2705L14.5161 20.2836L18.3686 2.06511L18.3066 2.052Z" fill="#9355FB"/>
<path d="M18.3691 2.06616L14.5166 20.2846L14.5786 20.2977L18.4311 2.07927L18.3691 2.06616Z" fill="#9357FC"/>
<path d="M18.4297 2.07861L14.5771 20.2971L14.6391 20.3102L18.4916 2.09171L18.4297 2.07861Z" fill="#9358FC"/>
<path d="M18.4912 2.09058L14.6387 20.309L14.7006 20.3221L18.5532 2.10368L18.4912 2.09058Z" fill="#9459FC"/>
<path d="M18.5537 2.10474L14.7012 20.3232L14.7631 20.3363L18.6157 2.11784L18.5537 2.10474Z" fill="#945AFC"/>
<path d="M18.6142 2.11719L14.7617 20.3356L14.8237 20.3487L18.6762 2.1303L18.6142 2.11719Z" fill="#955BFC"/>
<path d="M18.6767 2.13135L14.8242 20.3498L14.8862 20.3629L18.7387 2.14445L18.6767 2.13135Z" fill="#955CFC"/>
<path d="M18.7392 2.14355L14.8867 20.362L14.9487 20.3751L18.8012 2.15665L18.7392 2.14355Z" fill="#955DFC"/>
<path d="M18.7998 2.15576L14.9473 20.3742L15.0092 20.3873L18.8617 2.16886L18.7998 2.15576Z" fill="#965EFC"/>
<path d="M18.8613 2.16992L15.0088 20.3884L15.0708 20.4015L18.9233 2.18303L18.8613 2.16992Z" fill="#965FFC"/>
<path d="M18.9228 2.18237L15.0703 20.4008L15.1323 20.4139L18.9848 2.19547L18.9228 2.18237Z" fill="#9760FC"/>
<path d="M18.9853 2.19458L15.1328 20.413L15.1948 20.4261L19.0473 2.20769L18.9853 2.19458Z" fill="#9761FC"/>
<path d="M19.0468 2.20874L15.1943 20.4272L15.2563 20.4403L19.1088 2.22185L19.0468 2.20874Z" fill="#9862FC"/>
<path d="M19.1072 2.22217L19.1688 2.23551L15.3182 20.4485H15.2966L15.2549 20.4401L19.1072 2.22217Z" fill="#9863FC"/>
<path d="M19.169 2.23535L19.2307 2.24868L15.3817 20.4483H15.3184L19.169 2.23535Z" fill="#9864FC"/>
<path d="M19.2308 2.24878L19.2925 2.26045L15.4468 20.4484H15.3818L19.2308 2.24878Z" fill="#9965FC"/>
<path d="M19.2929 2.2605L19.3546 2.27384L15.5106 20.4484H15.4473L19.2929 2.2605Z" fill="#9966FC"/>
<path d="M19.3537 2.27368L19.4154 2.28701L15.5748 20.4483H15.5098L19.3537 2.27368Z" fill="#9A67FC"/>
<path d="M19.4158 2.28711L19.4692 2.29878V2.33879L15.6402 20.4484H15.5752L19.4158 2.28711Z" fill="#9A68FC"/>
<path d="M19.4686 2.64367L15.703 20.4482H15.6396L19.4686 2.33862V2.64367Z" fill="#9A69FD"/>
<path d="M19.4687 2.94885L15.7681 20.4484H15.7031L19.4687 2.6438V2.94885Z" fill="#9B6AFD"/>
<path d="M19.4691 3.25211L15.8336 20.4482H15.7686L19.4691 2.94873V3.25211Z" fill="#9B6BFD"/>
<path d="M19.4696 3.55725L15.8973 20.4483H15.834L19.4696 3.2522V3.55725Z" fill="#9C6CFD"/>
<path d="M19.4687 3.86242L15.9615 20.4484H15.8965L19.4687 3.55737V3.86242Z" fill="#9C6DFD"/>
<path d="M19.4691 4.16568L16.0253 20.4483H15.9619L19.4691 3.8623V4.16568Z" fill="#9C6EFD"/>
<path d="M19.4693 4.47082L16.0904 20.4484H16.0254L19.4693 4.16577V4.47082Z" fill="#9D6FFD"/>
<path d="M19.4687 4.77575L16.1549 20.4483H16.0898L19.4687 4.4707V4.77575Z" fill="#9D70FD"/>
<path d="M19.4691 5.07927L16.2186 20.4484H16.1553L19.4691 4.77588V5.07927Z" fill="#9E71FD"/>
<path d="M19.4692 5.38415L16.2838 20.4483H16.2188L19.4692 5.0791V5.38415Z" fill="#9E72FD"/>
<path d="M19.4687 5.68766L16.3482 20.4484H16.2832L19.4687 5.38428V5.68766Z" fill="#9F73FD"/>
<path d="M19.4691 5.99254L16.412 20.4481H16.3486L19.4691 5.6875V5.99254Z" fill="#9F74FD"/>
<path d="M19.4693 6.29773L16.4771 20.4484H16.4121L19.4693 5.99268V6.29773Z" fill="#9F75FD"/>
<path d="M19.4687 6.60099L16.5399 20.4482H16.4766L19.4687 6.29761V6.60099Z" fill="#A076FD"/>
<path d="M19.4688 6.90612L16.605 20.4483H16.54L19.4688 6.60107V6.90612Z" fill="#A077FD"/>
<path d="M19.4693 7.21106L16.6705 20.4482H16.6055L19.4693 6.90601V7.21106Z" fill="#A178FD"/>
<path d="M19.4687 7.51456L16.7333 20.4483H16.6699L19.4687 7.21118V7.51456Z" fill="#A179FD"/>
<path d="M19.4688 7.8197L16.7984 20.4484H16.7334L19.4688 7.51465V7.8197Z" fill="#A17AFD"/>
<path d="M19.4693 8.12462L16.8622 20.4483H16.7988L19.4693 7.81958V8.12462Z" fill="#A27BFE"/>
<path d="M19.4694 8.42814L16.9273 20.4484H16.8623L19.4694 8.12476V8.42814Z" fill="#A27CFE"/>
<path d="M19.4688 8.73303L16.9918 20.4483H16.9268L19.4688 8.42798V8.73303Z" fill="#A37DFE"/>
<path d="M19.4692 9.03821L17.0555 20.4484H16.9922L19.4692 8.73315V9.03821Z" fill="#A37EFE"/>
<path d="M19.4694 9.34147L17.1207 20.4483H17.0557L19.4694 9.03809V9.34147Z" fill="#A47FFE"/>
<path d="M19.4688 9.6466L17.1851 20.4484H17.1201L19.4688 9.34155V9.6466Z" fill="#A480FE"/>
<path d="M19.4692 9.94985L17.2489 20.4483H17.1855L19.4692 9.64648V9.94985Z" fill="#A481FE"/>
<path d="M19.4694 10.255L17.314 20.4483H17.249L19.4694 9.94995V10.255Z" fill="#A582FE"/>
<path d="M19.4688 10.56L17.3768 20.4482H17.3135L19.4688 10.2549V10.56Z" fill="#A583FE"/>
<path d="M19.469 10.8635L17.442 20.4483H17.377L19.469 10.5601V10.8635Z" fill="#A684FE"/>
<path d="M19.4694 11.1685L17.5074 20.4483H17.4424L19.4694 10.8635V11.1685Z" fill="#A685FE"/>
<path d="M19.4688 11.4736L17.5702 20.4483H17.5068L19.4688 11.1685V11.4736Z" fill="#A686FE"/>
<path d="M19.4689 11.777L17.6353 20.4483H17.5703L19.4689 11.4736V11.777Z" fill="#A787FE"/>
<path d="M19.4694 12.0819L17.6991 20.4483H17.6357L19.4694 11.7769V12.0819Z" fill="#A788FE"/>
<path d="M19.4695 12.387L17.7642 20.4483H17.6992L19.4695 12.082V12.387Z" fill="#A889FE"/>
<path d="M19.4689 12.6904L17.8287 20.4483H17.7637L19.4689 12.387V12.6904Z" fill="#A88AFE"/>
<path d="M19.4694 12.9954L17.8924 20.4483H17.8291L19.4694 12.6904V12.9954Z" fill="#A88BFE"/>
<path d="M19.4695 13.3005L17.9576 20.4483H17.8926L19.4695 12.9954V13.3005Z" fill="#A98CFE"/>
<path d="M19.4689 13.6039L18.022 20.4483H17.957L19.4689 13.3005V13.6039Z" fill="#A98DFF"/>
<path d="M19.4694 13.9091L18.0858 20.4485H18.0225L19.4694 13.604V13.9091Z" fill="#AA8EFF"/>
<path d="M19.4695 14.2139L18.1509 20.4483H18.0859L19.4695 13.9089V14.2139Z" fill="#AA8FFF"/>
<path d="M19.4689 14.5173L18.2137 20.4482H18.1504L19.4689 14.2139V14.5173Z" fill="#AB90FF"/>
<path d="M19.4691 14.8223L18.2789 20.4482H18.2139L19.4691 14.5173V14.8223Z" fill="#AB91FF"/>
<path d="M19.4695 15.1257L18.3443 20.4482H18.2793L19.4695 14.8223V15.1257Z" fill="#AB92FF"/>
<path d="M19.4689 15.4307L18.4071 20.4482H18.3438L19.4689 15.1257V15.4307Z" fill="#AC93FF"/>
<path d="M19.4691 15.7359L18.4722 20.4483H18.4072L19.4691 15.4309V15.7359Z" fill="#AC94FF"/>
<path d="M19.4695 16.0392L18.536 20.4482H18.4727L19.4695 15.7358V16.0392Z" fill="#AD95FF"/>
<path d="M19.4686 16.3443L18.6002 20.4483H18.5352L19.4686 16.0393V16.3443Z" fill="#AD96FF"/>
<path d="M18.6006 20.4482L19.4691 16.3442V20.4482H18.6006Z" fill="#AD96FF"/>
</g>
<path d="M16.7131 20.2784C16.5331 20.2784 16.3531 20.26 16.173 20.2217C15.4963 20.0783 14.9162 19.6799 14.5378 19.1015L5.01459 4.17242C4.63786 3.59399 4.50951 2.90223 4.65287 2.22545C4.79622 1.54868 5.19462 0.968575 5.77304 0.590185C6.35314 0.213458 7.04491 0.0834369 7.72169 0.226793C8.39846 0.37015 8.97856 0.768546 9.35695 1.34697L18.8801 16.2761C19.6586 17.4713 19.3185 19.0782 18.1217 19.8583C17.6966 20.135 17.2099 20.2784 16.7148 20.2784H16.7131ZM7.1816 0.503504C6.74987 0.503504 6.32647 0.628524 5.95474 0.870225C5.44966 1.19861 5.10294 1.70536 4.97792 2.29378C4.8529 2.88388 4.96625 3.48564 5.29464 3.99072L14.8178 18.9198C15.1462 19.4232 15.6513 19.77 16.2414 19.895C16.8315 20.02 17.4332 19.9066 17.9383 19.5783C18.9802 18.8998 19.2769 17.4996 18.5984 16.4561L9.07524 1.52866C8.74685 1.02525 8.24177 0.678532 7.65168 0.553512C7.49499 0.520174 7.33663 0.503504 7.17994 0.503504H7.1816Z" fill="white"/>
<mask id="mask2_0_1" style="mask-type:luminance" maskUnits="userSpaceOnUse" x="0" y="6" width="25" height="9">
<path d="M21.6814 14.4691C22.7722 14.6998 23.8433 14.0029 24.0738 12.9126C24.3044 11.8223 23.6071 10.7514 22.5163 10.5208L2.62302 6.31412C1.53227 6.08347 0.461132 6.78035 0.230574 7.87065C1.61566e-05 8.96095 0.697343 10.0318 1.7881 10.2624L21.6814 14.4691Z" fill="white"/>
</mask>
<g mask="url(#mask2_0_1)">
<path d="M0.60843 6.08423L0 8.96136V6.08423H0.60843Z" fill="#F83778"/>
<path d="M0.725116 6.08423L0 9.51145V8.96136L0.60843 6.08423H0.725116Z" fill="#F83778"/>
<path d="M0.840134 6.08423L0 10.0599V9.51145L0.725116 6.08423H0.840134Z" fill="#F83776"/>
<path d="M0.956819 6.08423L0.0900144 10.1883L0 10.1683V10.0599L0.840134 6.08423H0.956819Z" fill="#F83874"/>
<path d="M1.07333 6.08423L0.199861 10.2116L0.0898438 10.1883L0.956649 6.08423H1.07333Z" fill="#F83873"/>
<path d="M1.18869 6.08423L0.31188 10.2349L0.200195 10.2116L1.07367 6.08423H1.18869Z" fill="#F83871"/>
<path d="M1.30502 6.08423L0.423208 10.2583L0.311523 10.2349L1.18833 6.08423H1.30502Z" fill="#F8386F"/>
<path d="M1.42232 6.08423L0.533846 10.2816L0.423828 10.2583L1.30564 6.08423H1.42232Z" fill="#F8396D"/>
<path d="M1.53836 6.08423L0.644888 10.3049L0.533203 10.2816L1.42168 6.08423H1.53836Z" fill="#F8396B"/>
<path d="M1.654 6.08423L0.757192 10.3283L0.645508 10.3049L1.53898 6.08423H1.654Z" fill="#F8396A"/>
<path d="M1.77033 6.08423L0.86852 10.3516L0.756836 10.3283L1.65365 6.08423H1.77033Z" fill="#F93968"/>
<path d="M1.88666 6.08423L0.978182 10.375L0.868164 10.3516L1.76997 6.08423H1.88666Z" fill="#F93966"/>
<path d="M2.00201 6.08423L1.0902 10.4L0.978516 10.375L1.88699 6.08423H2.00201Z" fill="#F93A65"/>
<path d="M2.11834 6.08423L1.20153 10.4233L1.08984 10.4L2.00166 6.08423H2.11834Z" fill="#F93A63"/>
<path d="M2.23565 6.08423L1.31217 10.4466L1.20215 10.4233L2.11896 6.08423H2.23565Z" fill="#F93A61"/>
<path d="M2.35002 6.08423L1.42321 10.47L1.31152 10.4466L2.235 6.08423H2.35002Z" fill="#F93A60"/>
<path d="M2.46733 6.08423L1.53551 10.4933L1.42383 10.47L2.35064 6.08423H2.46733Z" fill="#F93B5E"/>
<path d="M2.58366 6.08423L1.64517 10.5166L1.53516 10.4933L2.46697 6.08423H2.58366Z" fill="#F93B5C"/>
<path d="M2.69901 6.08423L1.75719 10.54L1.64551 10.5166L2.58399 6.08423H2.69901Z" fill="#F93B5B"/>
<path d="M2.81534 6.08423L1.86852 10.5633L1.75684 10.54L2.69865 6.08423H2.81534Z" fill="#F93B59"/>
<path d="M2.87332 6.08423L2.92833 6.0959L1.97985 10.5867L1.86816 10.5633L2.81498 6.08423H2.87332Z" fill="#F93C57"/>
<path d="M2.93023 6.09595L1.98047 10.5873L2.09137 10.6108L3.04113 6.1194L2.93023 6.09595Z" fill="#F93C56"/>
<path d="M3.04058 6.11987L2.09082 10.6113L2.20172 10.6347L3.15148 6.14332L3.04058 6.11987Z" fill="#F93C54"/>
<path d="M3.15191 6.1438L2.20215 10.6352L2.31305 10.6587L3.26281 6.16725L3.15191 6.1438Z" fill="#F93C53"/>
<path d="M3.26226 6.16602L2.3125 10.6574L2.4234 10.6809L3.37316 6.18948L3.26226 6.16602Z" fill="#F93C51"/>
<path d="M3.37359 6.18994L2.42383 10.6813L2.53473 10.7048L3.48449 6.21339L3.37359 6.18994Z" fill="#F93D50"/>
<path d="M3.48394 6.21387L2.53418 10.7053L2.64508 10.7287L3.59484 6.23732L3.48394 6.21387Z" fill="#F93D4E"/>
<path d="M3.59723 6.23657L2.64746 10.728L2.75836 10.7514L3.70812 6.26002L3.59723 6.23657Z" fill="#FA3D4D"/>
<path d="M3.70758 6.26025L2.75781 10.7517L2.86871 10.7751L3.81848 6.2837L3.70758 6.26025Z" fill="#FA3D4B"/>
<path d="M3.81988 6.28418L2.87012 10.7756L2.98102 10.799L3.93078 6.30763L3.81988 6.28418Z" fill="#FA3D4A"/>
<path d="M3.93121 6.30811L2.98145 10.7995L3.09234 10.823L4.04211 6.33157L3.93121 6.30811Z" fill="#FA3E48"/>
<path d="M4.04156 6.33032L3.0918 10.8217L3.2027 10.8452L4.15246 6.35377L4.04156 6.33032Z" fill="#FA3E47"/>
<path d="M4.1529 6.35596L3.20312 10.8474L3.31402 10.8708L4.2638 6.37941L4.1529 6.35596Z" fill="#FA3E45"/>
<path d="M4.26324 6.37817L3.31348 10.8696L3.42438 10.893L4.37414 6.40162L4.26324 6.37817Z" fill="#FA3E44"/>
<path d="M4.37457 6.4021L3.4248 10.8935L3.5357 10.917L4.48547 6.42555L4.37457 6.4021Z" fill="#FA3E43"/>
<path d="M4.48492 6.42432L3.53516 10.9157L3.64605 10.9392L4.59582 6.44777L4.48492 6.42432Z" fill="#FA3F41"/>
<path d="M4.59723 6.4502L3.64746 10.9416L3.75836 10.965L4.70812 6.47366L4.59723 6.4502Z" fill="#FA3F40"/>
<path d="M4.70855 6.47241L3.75879 10.9638L3.86969 10.9873L4.81945 6.49586L4.70855 6.47241Z" fill="#FA3F3E"/>
<path d="M4.82086 6.49463L3.87109 10.986L3.98199 11.0095L4.93176 6.51808L4.82086 6.49463Z" fill="#FA3F3D"/>
<path d="M4.93121 6.52026L3.98145 11.0117L4.09234 11.0351L5.04211 6.54371L4.93121 6.52026Z" fill="#FA3F3C"/>
<path d="M5.04254 6.54248L4.09277 11.0339L4.20367 11.0573L5.15344 6.56593L5.04254 6.54248Z" fill="#FA403B"/>
<path d="M5.15387 6.56641L4.2041 11.0578L4.315 11.0813L5.26476 6.58986L5.15387 6.56641Z" fill="#FA4039"/>
<path d="M5.26422 6.58862L4.31445 11.08L4.42535 11.1035L5.37512 6.61207L5.26422 6.58862Z" fill="#FA4038"/>
<path d="M5.37555 6.61426L4.42578 11.1057L4.53668 11.1291L5.48644 6.63771L5.37555 6.61426Z" fill="#FA4037"/>
<path d="M5.4859 6.63647L4.53613 11.1279L4.64703 11.1513L5.5968 6.65992L5.4859 6.63647Z" fill="#FA4035"/>
<path d="M5.59723 6.6604L4.64746 11.1518L4.75836 11.1753L5.70812 6.68385L5.59723 6.6604Z" fill="#FA4034"/>
<path d="M5.70953 6.68457L4.75977 11.176L4.87066 11.1994L5.82043 6.70802L5.70953 6.68457Z" fill="#FA4133"/>
<path d="M5.82183 6.7085L4.87207 11.1999L4.98297 11.2233L5.93273 6.73195L5.82183 6.7085Z" fill="#FA4132"/>
<path d="M5.93316 6.73071L4.9834 11.2221L5.0943 11.2456L6.04406 6.75416L5.93316 6.73071Z" fill="#FA4131"/>
<path d="M6.04351 6.75293L5.09375 11.2443L5.20465 11.2678L6.15441 6.77638L6.04351 6.75293Z" fill="#FB412F"/>
<path d="M6.15484 6.77856L5.20508 11.27L5.31598 11.2934L6.26574 6.80201L6.15484 6.77856Z" fill="#FB412E"/>
<path d="M6.26519 6.80078L5.31543 11.2922L5.42633 11.3156L6.37609 6.82423L6.26519 6.80078Z" fill="#FB412D"/>
<path d="M6.37652 6.82471L5.42676 11.3161L5.53766 11.3396L6.48742 6.84816L6.37652 6.82471Z" fill="#FB422C"/>
<path d="M6.48687 6.84863L5.53711 11.34L5.64801 11.3635L6.59777 6.87208L6.48687 6.84863Z" fill="#FB422B"/>
<path d="M6.5982 6.87256L5.64844 11.364L5.75934 11.3874L6.7091 6.89601L6.5982 6.87256Z" fill="#FB422A"/>
<path d="M6.71051 6.89502L5.76074 11.3864L5.87164 11.4099L6.82141 6.91847L6.71051 6.89502Z" fill="#FB4229"/>
<path d="M6.82281 6.91895L5.87305 11.4103L5.98395 11.4338L6.93371 6.94241L6.82281 6.91895Z" fill="#FB4228"/>
<path d="M6.93316 6.94287L5.9834 11.4343L6.0943 11.4577L7.04406 6.96632L6.93316 6.94287Z" fill="#FB4226"/>
<path d="M7.04449 6.9668L6.09473 11.4582L6.20563 11.4816L7.15539 6.99025L7.04449 6.9668Z" fill="#FB4225"/>
<path d="M7.15582 6.98901L6.20605 11.4804L6.31695 11.5039L7.26672 7.01246L7.15582 6.98901Z" fill="#FB4324"/>
<path d="M7.26617 7.01294L6.31641 11.5043L6.42731 11.5278L7.37707 7.03639L7.26617 7.01294Z" fill="#FB4323"/>
<path d="M7.3775 7.03687L6.42773 11.5283L6.53863 11.5517L7.4884 7.06033L7.3775 7.03687Z" fill="#FB4322"/>
<path d="M7.48785 7.05908L6.53809 11.5505L6.64899 11.5739L7.59875 7.08253L7.48785 7.05908Z" fill="#FB4321"/>
<path d="M7.5982 7.08472L6.64844 11.5761L6.75934 11.5996L7.7091 7.10817L7.5982 7.08472Z" fill="#FB4320"/>
<path d="M7.70953 7.10693L6.75977 11.5983L6.87066 11.6218L7.82043 7.13038L7.70953 7.10693Z" fill="#FB431F"/>
<path d="M7.82379 7.1311L6.87402 11.6225L6.98492 11.646L7.93469 7.15455L7.82379 7.1311Z" fill="#FB431F"/>
<path d="M7.93512 7.15332L6.98535 11.6447L7.09625 11.6682L8.04601 7.17677L7.93512 7.15332Z" fill="#FB441E"/>
<path d="M8.04547 7.17896L7.0957 11.6704L7.2066 11.6938L8.15637 7.20241L8.04547 7.17896Z" fill="#FB441D"/>
<path d="M8.1568 7.20117L7.20703 11.6926L7.31793 11.716L8.26769 7.22462L8.1568 7.20117Z" fill="#FB441C"/>
<path d="M8.26715 7.22339L7.31738 11.7148L7.42828 11.7382L8.37805 7.24684L8.26715 7.22339Z" fill="#FB441B"/>
<path d="M8.3775 7.24902L7.42773 11.7404L7.53863 11.7639L8.4884 7.27247L8.3775 7.24902Z" fill="#FB441A"/>
<path d="M8.48883 7.27124L7.53906 11.7626L7.64996 11.7861L8.59973 7.29469L8.48883 7.27124Z" fill="#FB4419"/>
<path d="M8.60015 7.29517L7.65039 11.7866L7.76129 11.81L8.71105 7.31862L8.60015 7.29517Z" fill="#FB4418"/>
<path d="M8.71051 7.31738L7.76074 11.8088L7.87164 11.8322L8.82141 7.34083L8.71051 7.31738Z" fill="#FB4418"/>
<path d="M8.82281 7.34302L7.87305 11.8344L7.98395 11.8579L8.93371 7.36647L8.82281 7.34302Z" fill="#FB4517"/>
<path d="M8.93512 7.36548L7.98535 11.8569L8.09625 11.8803L9.04601 7.38893L8.93512 7.36548Z" fill="#FB4516"/>
<path d="M9.04644 7.3894L8.09668 11.8808L8.20758 11.9043L9.15734 7.41286L9.04644 7.3894Z" fill="#FB4515"/>
<path d="M9.1568 7.41333L8.20703 11.9047L8.31793 11.9282L9.26769 7.43678L9.1568 7.41333Z" fill="#FB4514"/>
<path d="M9.26812 7.43726L8.31836 11.9287L8.42926 11.9521L9.37902 7.46071L9.26812 7.43726Z" fill="#FB4514"/>
<path d="M9.37945 7.45947L8.42969 11.9509L8.54059 11.9743L9.49035 7.48292L9.37945 7.45947Z" fill="#FC4513"/>
<path d="M9.4898 7.48169L8.54004 11.9731L8.65094 11.9965L9.6007 7.50514L9.4898 7.48169Z" fill="#FC4512"/>
<path d="M9.60015 7.50732L8.65039 11.9987L8.76129 12.0222L9.71105 7.53078L9.60015 7.50732Z" fill="#FC4512"/>
<path d="M9.71148 7.52954L8.76172 12.0209L8.87262 12.0444L9.82238 7.55299L9.71148 7.52954Z" fill="#FC4511"/>
<path d="M9.82379 7.55347L8.87402 12.0449L8.98492 12.0683L9.93469 7.57692L9.82379 7.55347Z" fill="#FC4510"/>
<path d="M9.93609 7.57764L8.98633 12.069L9.09723 12.0925L10.047 7.60109L9.93609 7.57764Z" fill="#FC4610"/>
<path d="M10.0474 7.60156L9.09766 12.093L9.20856 12.1164L10.1583 7.62501L10.0474 7.60156Z" fill="#FC460F"/>
<path d="M10.1587 7.62378L9.20898 12.1152L9.31988 12.1386L10.2696 7.64723L10.1587 7.62378Z" fill="#FC460E"/>
<path d="M10.2691 7.64941L9.31934 12.1408L9.43023 12.1643L10.38 7.67286L10.2691 7.64941Z" fill="#FC460E"/>
<path d="M10.3795 7.67163L9.42969 12.163L9.54059 12.1865L10.4904 7.69508L10.3795 7.67163Z" fill="#FC460D"/>
<path d="M10.4908 7.69556L9.54102 12.187L9.65191 12.2104L10.6017 7.71901L10.4908 7.69556Z" fill="#FC460D"/>
<path d="M10.6021 7.71777L9.65234 12.2092L9.76324 12.2326L10.713 7.74122L10.6021 7.71777Z" fill="#FC460C"/>
<path d="M10.7125 7.7417L9.7627 12.2331L9.87359 12.2566L10.8234 7.76515L10.7125 7.7417Z" fill="#FC460C"/>
<path d="M10.8248 7.76562L9.875 12.257L9.9859 12.2805L10.9357 7.78907L10.8248 7.76562Z" fill="#FC460B"/>
<path d="M10.9361 7.78784L9.98633 12.2792L10.0972 12.3027L11.047 7.81129L10.9361 7.78784Z" fill="#FC460B"/>
<path d="M11.0484 7.81372L10.0986 12.3051L10.2095 12.3286L11.1593 7.83717L11.0484 7.81372Z" fill="#FC460A"/>
<path d="M11.1587 7.83594L10.209 12.3273L10.3199 12.3508L11.2696 7.85939L11.1587 7.83594Z" fill="#FC460A"/>
<path d="M11.2701 7.85986L10.3203 12.3513L10.4312 12.3747L11.381 7.88331L11.2701 7.85986Z" fill="#FC4609"/>
<path d="M11.3814 7.88208L10.4316 12.3735L10.5425 12.3969L11.4923 7.90553L11.3814 7.88208Z" fill="#FC4609"/>
<path d="M11.4918 7.90771L10.542 12.3991L10.6529 12.4226L11.6027 7.93116L11.4918 7.90771Z" fill="#FC4709"/>
<path d="M11.6021 7.92993L10.6523 12.4213L10.7632 12.4448L11.713 7.95338L11.6021 7.92993Z" fill="#FC4708"/>
<path d="M11.7134 7.95386L10.7637 12.4453L10.8746 12.4687L11.8243 7.97731L11.7134 7.95386Z" fill="#FC4708"/>
<path d="M11.8257 7.97778L10.876 12.4692L10.9869 12.4926L11.9366 8.00123L11.8257 7.97778Z" fill="#FC4705"/>
<path d="M11.9371 8L10.9873 12.4914L11.0982 12.5149L12.048 8.02345L11.9371 8Z" fill="#FC4705"/>
<path d="M12.0494 8.02417L11.0996 12.5156L11.2105 12.539L12.1603 8.04762L12.0494 8.02417Z" fill="#FC4705"/>
<path d="M12.1597 8.04639L11.21 12.5378L11.3209 12.5612L12.2706 8.06984L12.1597 8.04639Z" fill="#FC4705"/>
<path d="M12.2711 8.07202L11.3213 12.5634L11.4322 12.5869L12.382 8.09547L12.2711 8.07202Z" fill="#FC4705"/>
<path d="M12.3814 8.09424L11.4316 12.5856L11.5425 12.6091L12.4923 8.11769L12.3814 8.09424Z" fill="#FC4705"/>
<path d="M12.4927 8.11816L11.543 12.6096L11.6539 12.633L12.6036 8.14161L12.4927 8.11816Z" fill="#FC4705"/>
<path d="M12.6031 8.14209L11.6533 12.6335L11.7642 12.6569L12.714 8.16554L12.6031 8.14209Z" fill="#FC4705"/>
<path d="M12.7144 8.16602L11.7646 12.6574L11.8755 12.6809L12.8253 8.18947L12.7144 8.16602Z" fill="#FC4705"/>
<path d="M12.8257 8.18823L11.876 12.6796L11.9869 12.7031L12.9366 8.21168L12.8257 8.18823Z" fill="#FC4705"/>
<path d="M12.938 8.21216L11.9883 12.7036L12.0992 12.727L13.0489 8.23561L12.938 8.21216Z" fill="#FC4705"/>
<path d="M13.0484 8.23608L12.0986 12.7275L12.2095 12.7509L13.1593 8.25953L13.0484 8.23608Z" fill="#FC4705"/>
<path d="M13.1607 8.25854L12.2109 12.7499L12.3218 12.7734L13.2716 8.282L13.1607 8.25854Z" fill="#FC4705"/>
<path d="M13.272 8.28247L12.3223 12.7739L12.4332 12.7973L13.3829 8.30592L13.272 8.28247Z" fill="#FC4705"/>
<path d="M13.3824 8.3064L12.4326 12.7978L12.5435 12.8212L13.4933 8.32985L13.3824 8.3064Z" fill="#FC4705"/>
<path d="M13.4927 8.32959L12.543 12.821L12.618 12.8369L13.5678 8.34545L13.4927 8.32959Z" fill="#FC4705"/>
<path d="M13.5679 8.34619L12.6182 12.8376L12.6932 12.8535L13.6429 8.36205L13.5679 8.34619Z" fill="#FC4805"/>
<path d="M13.6431 8.36108L12.6934 12.8525L12.7684 12.8683L13.7181 8.37695L13.6431 8.36108Z" fill="#FC4906"/>
<path d="M13.7183 8.37598L12.7686 12.8674L12.8436 12.8832L13.7933 8.39184L13.7183 8.37598Z" fill="#FC4A06"/>
<path d="M13.7935 8.39429L12.8438 12.8857L12.9188 12.9016L13.8685 8.41015L13.7935 8.39429Z" fill="#FC4B06"/>
<path d="M13.8668 8.40894L12.917 12.9003L12.992 12.9162L13.9418 8.42481L13.8668 8.40894Z" fill="#FC4C06"/>
<path d="M13.942 8.42407L12.9922 12.9155L13.0672 12.9313L14.017 8.43994L13.942 8.42407Z" fill="#FC4D07"/>
<path d="M14.0171 8.44043L13.0674 12.9318L13.1424 12.9477L14.0922 8.45629L14.0171 8.44043Z" fill="#FC4E07"/>
<path d="M14.0923 8.45557L13.1426 12.947L13.2176 12.9628L14.1674 8.47143L14.0923 8.45557Z" fill="#FC4F07"/>
<path d="M14.1656 8.47192L13.2158 12.9633L13.2908 12.9792L14.2406 8.48779L14.1656 8.47192Z" fill="#FC5008"/>
<path d="M14.2408 8.48853L13.291 12.9799L13.366 12.9958L14.3158 8.5044L14.2408 8.48853Z" fill="#FC5108"/>
<path d="M14.316 8.50342L13.3662 12.9948L13.4412 13.0107L14.391 8.51928L14.316 8.50342Z" fill="#FC5208"/>
<path d="M14.3892 8.51978L13.4395 13.0112L13.5145 13.027L14.4642 8.53565L14.3892 8.51978Z" fill="#FC5308"/>
<path d="M14.4644 8.53467L13.5146 13.0261L13.5897 13.0419L14.5394 8.55053L14.4644 8.53467Z" fill="#FC5409"/>
<path d="M14.5396 8.54956L13.5898 13.041L13.6649 13.0568L14.6146 8.56542L14.5396 8.54956Z" fill="#FC5509"/>
<path d="M14.6148 8.56787L13.665 13.0593L13.7401 13.0751L14.6898 8.58373L14.6148 8.56787Z" fill="#FC5609"/>
<path d="M14.688 8.58252L13.7383 13.0739L13.8133 13.0898L14.7631 8.59838L14.688 8.58252Z" fill="#FC570A"/>
<path d="M14.7632 8.59766L13.8135 13.0891L13.8885 13.1049L14.8383 8.61352L14.7632 8.59766Z" fill="#FC580A"/>
<path d="M14.8384 8.61401L13.8887 13.1054L13.9637 13.1213L14.9135 8.62988L14.8384 8.61401Z" fill="#FC590A"/>
<path d="M14.9136 8.62915L13.9639 13.1206L14.0389 13.1364L14.9887 8.64501L14.9136 8.62915Z" fill="#FC5A0A"/>
<path d="M14.9869 8.64551L14.0371 13.1369L14.1121 13.1528L15.0619 8.66137L14.9869 8.64551Z" fill="#FC5B0B"/>
<path d="M15.064 8.66235L14.1143 13.1538L14.1893 13.1696L15.139 8.67822L15.064 8.66235Z" fill="#FC5C0B"/>
<path d="M15.1373 8.677L14.1875 13.1684L14.2625 13.1843L15.2123 8.69287L15.1373 8.677Z" fill="#FC5D0B"/>
<path d="M15.2125 8.69385L14.2627 13.1852L14.3377 13.2011L15.2875 8.70971L15.2125 8.69385Z" fill="#FC5E0C"/>
<path d="M15.2857 8.7085L14.3359 13.1999L14.411 13.2158L15.3607 8.72436L15.2857 8.7085Z" fill="#FC5F0C"/>
<path d="M15.3629 8.7251L14.4131 13.2165L14.4881 13.2324L15.4379 8.74096L15.3629 8.7251Z" fill="#FD600C"/>
<path d="M15.4361 8.74146L14.4863 13.2329L14.5613 13.2487L15.5111 8.75732L15.4361 8.74146Z" fill="#FD610C"/>
<path d="M15.5113 8.75659L14.5615 13.248L14.6365 13.2639L15.5863 8.77245L15.5113 8.75659Z" fill="#FD620D"/>
<path d="M15.5845 8.77124L14.6348 13.2626L14.7098 13.2785L15.6595 8.7871L15.5845 8.77124Z" fill="#FD630D"/>
<path d="M15.6617 8.78809L14.7119 13.2795L14.7869 13.2954L15.7367 8.80395L15.6617 8.78809Z" fill="#FD640D"/>
<path d="M15.7349 8.80273L14.7852 13.2941L14.8602 13.31L15.8099 8.8186L15.7349 8.80273Z" fill="#FD650E"/>
<path d="M15.8082 8.81909L14.8584 13.3105L14.9334 13.3264L15.8832 8.83495L15.8082 8.81909Z" fill="#FD660E"/>
<path d="M15.8853 8.83594L14.9355 13.3273L15.0106 13.3432L15.9603 8.8518L15.8853 8.83594Z" fill="#FD670E"/>
<path d="M15.9586 8.85059L15.0088 13.342L15.0838 13.3579L16.0336 8.86646L15.9586 8.85059Z" fill="#FD680E"/>
<path d="M16.0337 8.86743L15.084 13.3588L15.159 13.3747L16.1088 8.88329L16.0337 8.86743Z" fill="#FD690F"/>
<path d="M16.107 8.88208L15.1572 13.3735L15.2322 13.3893L16.182 8.89794L16.107 8.88208Z" fill="#FD6A0F"/>
<path d="M16.1841 8.89893L15.2344 13.3903L15.3094 13.4062L16.2592 8.9148L16.1841 8.89893Z" fill="#FD6B0F"/>
<path d="M16.2574 8.91528L15.3076 13.4067L15.3826 13.4225L16.3324 8.93115L16.2574 8.91528Z" fill="#FD6C10"/>
<path d="M16.3326 8.93042L15.3828 13.4218L15.4578 13.4377L16.4076 8.94628L16.3326 8.93042Z" fill="#FD6D10"/>
<path d="M16.4058 8.94507L15.4561 13.4365L15.5311 13.4523L16.4808 8.96093L16.4058 8.94507Z" fill="#FD6E10"/>
<path d="M16.483 8.96167L15.5332 13.4531L15.6082 13.4689L16.558 8.97753L16.483 8.96167Z" fill="#FD6F10"/>
<path d="M16.5562 8.97656L15.6064 13.468L15.6815 13.4838L16.6312 8.99243L16.5562 8.97656Z" fill="#FD7011"/>
<path d="M16.6314 8.99316L15.6816 13.4846L15.7567 13.5004L16.7064 9.00903L16.6314 8.99316Z" fill="#FD7111"/>
<path d="M16.7066 9.00952L15.7568 13.5009L15.8319 13.5168L16.7816 9.02538L16.7066 9.00952Z" fill="#FD7211"/>
<path d="M16.7818 9.02466L15.832 13.5161L15.9071 13.5319L16.8568 9.04052L16.7818 9.02466Z" fill="#FD7312"/>
<path d="M16.855 9.03931L15.9053 13.5307L15.9803 13.5466L16.9301 9.05517L16.855 9.03931Z" fill="#FD7412"/>
<path d="M16.9302 9.05615L15.9805 13.5476L16.0555 13.5634L17.0053 9.07202L16.9302 9.05615Z" fill="#FD7512"/>
<path d="M17.0054 9.07251L16.0557 13.5639L16.1307 13.5798L17.0804 9.08837L17.0054 9.07251Z" fill="#FD7612"/>
<path d="M17.0806 9.08911L16.1309 13.5805L16.2059 13.5964L17.1556 9.10497L17.0806 9.08911Z" fill="#FD7713"/>
<path d="M17.1539 9.104L16.2041 13.5954L16.2791 13.6113L17.2289 9.11987L17.1539 9.104Z" fill="#FD7813"/>
<path d="M17.2291 9.11914L16.2793 13.6105L16.3543 13.6264L17.3041 9.135L17.2291 9.11914Z" fill="#FD7913"/>
<path d="M17.3043 9.1355L16.3545 13.6269L16.4295 13.6428L17.3793 9.15136L17.3043 9.1355Z" fill="#FD7A14"/>
<path d="M17.3775 9.15186L16.4277 13.6433L16.5028 13.6591L17.4525 9.16773L17.3775 9.15186Z" fill="#FD7B14"/>
<path d="M17.4527 9.16675L16.5029 13.6581L16.5779 13.674L17.5277 9.18261L17.4527 9.16675Z" fill="#FD7C14"/>
<path d="M17.5279 9.18335L16.5781 13.6748L16.6531 13.6906L17.6029 9.19921L17.5279 9.18335Z" fill="#FD7D14"/>
<path d="M17.6031 9.19824L16.6533 13.6896L16.7283 13.7055L17.6781 9.2141L17.6031 9.19824Z" fill="#FD7E15"/>
<path d="M17.6763 9.21313L16.7266 13.7045L16.8016 13.7204L17.7513 9.229L17.6763 9.21313Z" fill="#FD7F15"/>
<path d="M17.7515 9.22974L16.8018 13.7211L16.8768 13.737L17.8265 9.2456L17.7515 9.22974Z" fill="#FD8015"/>
<path d="M17.8267 9.24609L16.877 13.7375L16.952 13.7534L17.9017 9.26196L17.8267 9.24609Z" fill="#FD8116"/>
<path d="M17.9019 9.26294L16.9521 13.7543L17.0272 13.7702L17.9769 9.2788L17.9019 9.26294Z" fill="#FD8216"/>
<path d="M17.9752 9.27759L17.0254 13.769L17.1004 13.7849L18.0502 9.29345L17.9752 9.27759Z" fill="#FD8316"/>
<path d="M18.0504 9.29272L17.1006 13.7841L17.1756 13.8L18.1254 9.30859L18.0504 9.29272Z" fill="#FD8416"/>
<path d="M18.1255 9.30908L17.1758 13.8005L17.2508 13.8163L18.2006 9.32494L18.1255 9.30908Z" fill="#FD8517"/>
<path d="M18.2007 9.32568L17.251 13.8171L17.326 13.8329L18.2758 9.34155L18.2007 9.32568Z" fill="#FD8617"/>
<path d="M18.274 9.34058L17.3242 13.832L17.3992 13.8478L18.349 9.35644L18.274 9.34058Z" fill="#FD8717"/>
<path d="M18.3511 9.35718L17.4014 13.8486L17.4764 13.8644L18.4262 9.37304L18.3511 9.35718Z" fill="#FD8818"/>
<path d="M18.4244 9.37207L17.4746 13.8635L17.5496 13.8793L18.4994 9.38793L18.4244 9.37207Z" fill="#FD8918"/>
<path d="M18.4996 9.38696L17.5498 13.8784L17.6248 13.8942L18.5746 9.40283L18.4996 9.38696Z" fill="#FD8A18"/>
<path d="M18.5728 9.40356L17.623 13.895L17.6981 13.9108L18.6478 9.41943L18.5728 9.40356Z" fill="#FD8B18"/>
<path d="M18.649 9.42017L17.6992 13.9116L17.7742 13.9274L18.724 9.43604L18.649 9.42017Z" fill="#FD8C19"/>
<path d="M18.7232 9.43652L17.7734 13.9279L17.8485 13.9438L18.7982 9.45239L18.7232 9.43652Z" fill="#FD8D19"/>
<path d="M18.7964 9.45142L17.8467 13.9428L17.9217 13.9587L18.8715 9.46729L18.7964 9.45142Z" fill="#FD8E19"/>
<path d="M18.8736 9.46631L17.9238 13.9577L17.9988 13.9736L18.9486 9.48217L18.8736 9.46631Z" fill="#FD8F1A"/>
<path d="M18.9468 9.48267L17.9971 13.9741L18.0721 13.9899L19.0219 9.49854L18.9468 9.48267Z" fill="#FD901A"/>
<path d="M19.022 9.49951L18.0723 13.9909L18.1473 14.0068L19.0971 9.51537L19.022 9.49951Z" fill="#FE921A"/>
<path d="M19.0953 9.51416L18.1455 14.0056L18.2205 14.0214L19.1703 9.53002L19.0953 9.51416Z" fill="#FE931A"/>
<path d="M19.1724 9.53101L18.2227 14.0224L18.2977 14.0383L19.2474 9.54688L19.1724 9.53101Z" fill="#FE941B"/>
<path d="M19.2457 9.54565L18.2959 14.0371L18.3709 14.0529L19.3207 9.56152L19.2457 9.54565Z" fill="#FE951B"/>
<path d="M19.3209 9.56079L18.3711 14.0522L18.4461 14.0681L19.3959 9.57665L19.3209 9.56079Z" fill="#FE961B"/>
<path d="M19.3941 9.57715L18.4443 14.0685L18.5194 14.0844L19.4691 9.59301L19.3941 9.57715Z" fill="#FE971C"/>
<path d="M19.4712 9.59375L18.5215 14.0852L18.5965 14.101L19.5463 9.60961L19.4712 9.59375Z" fill="#FE981C"/>
<path d="M19.5445 9.60864L18.5947 14.1L18.6697 14.1159L19.6195 9.62451L19.5445 9.60864Z" fill="#FE991C"/>
<path d="M19.6197 9.62524L18.6699 14.1166L18.7449 14.1325L19.6947 9.64111L19.6197 9.62524Z" fill="#FE9A1C"/>
<path d="M19.6949 9.64014L18.7451 14.1315L18.8201 14.1474L19.7699 9.656L19.6949 9.64014Z" fill="#FE9B1D"/>
<path d="M19.7701 9.65674L18.8203 14.1481L18.8953 14.164L19.8451 9.6726L19.7701 9.65674Z" fill="#FE9C1D"/>
<path d="M19.8433 9.6731L18.8936 14.1645L18.9686 14.1804L19.9183 9.68896L19.8433 9.6731Z" fill="#FE9D1D"/>
<path d="M19.9185 9.68823L18.9688 14.1796L19.0438 14.1955L19.9935 9.70409L19.9185 9.68823Z" fill="#FE9E1E"/>
<path d="M19.9937 9.70459L19.0439 14.196L19.119 14.2119L20.0687 9.72045L19.9937 9.70459Z" fill="#FE9F1E"/>
<path d="M20.0689 9.71973L19.1191 14.2111L19.1942 14.227L20.1439 9.73559L20.0689 9.71973Z" fill="#FEA01E"/>
<path d="M20.1421 9.73438L19.1924 14.2258L19.2674 14.2416L20.2172 9.75024L20.1421 9.73438Z" fill="#FEA11E"/>
<path d="M20.2173 9.75269L19.2676 14.2441L19.3426 14.2599L20.2924 9.76856L20.2173 9.75269Z" fill="#FEA21F"/>
<path d="M20.2925 9.76758L19.3428 14.259L19.4178 14.2748L20.3676 9.78344L20.2925 9.76758Z" fill="#FEA31F"/>
<path d="M20.3658 9.78223L19.416 14.2736L19.491 14.2895L20.4408 9.7981L20.3658 9.78223Z" fill="#FEA41F"/>
<path d="M20.441 9.79907L19.4912 14.2905L19.5662 14.3063L20.516 9.81494L20.441 9.79907Z" fill="#FEA520"/>
<path d="M20.5162 9.81372L19.5664 14.3051L19.6414 14.321L20.5912 9.82958L20.5162 9.81372Z" fill="#FEA620"/>
<path d="M20.5914 9.83032L19.6416 14.3217L19.7166 14.3376L20.6664 9.84621L20.5914 9.83032Z" fill="#FEA720"/>
<path d="M20.6646 9.84668L19.7148 14.3381L19.7899 14.3539L20.7396 9.86248L20.6646 9.84668Z" fill="#FEA820"/>
<path d="M20.7398 9.86182L19.79 14.3532L19.8651 14.3691L20.8148 9.87772L20.7398 9.86182Z" fill="#FEA921"/>
<path d="M20.815 9.87817L19.8652 14.3696L19.9403 14.3854L20.89 9.89397L20.815 9.87817Z" fill="#FEAA21"/>
<path d="M20.8902 9.89331L19.9404 14.3847L20.0154 14.4006L20.9652 9.90921L20.8902 9.89331Z" fill="#FEAB21"/>
<path d="M20.9634 9.90796L20.0137 14.3995L20.0887 14.4153L21.0385 9.92386L20.9634 9.90796Z" fill="#FEAC22"/>
<path d="M21.0386 9.92651L20.0889 14.4179L20.1639 14.4338L21.1137 9.94241L21.0386 9.92651Z" fill="#FEAD22"/>
<path d="M21.1138 9.94116L20.1641 14.4326L20.2391 14.4484L21.1888 9.95696L21.1138 9.94116Z" fill="#FEAE22"/>
<path d="M21.189 9.9563L20.2393 14.4477L20.3143 14.4636L21.264 9.9722L21.189 9.9563Z" fill="#FEAF22"/>
<path d="M21.2623 9.97266L20.3125 14.4642L20.3875 14.48L21.3373 9.98856L21.2623 9.97266Z" fill="#FEB023"/>
<path d="M21.3394 9.98779L20.3896 14.4792L20.4647 14.4951L21.4144 10.0036L21.3394 9.98779Z" fill="#FEB123"/>
<path d="M21.4127 10.0042L20.4629 14.4957L20.5379 14.5114L21.4877 10.0201L21.4127 10.0042Z" fill="#FEB223"/>
<path d="M21.4878 10.0208L20.5381 14.5123L20.6131 14.5281L21.5629 10.0367L21.4878 10.0208Z" fill="#FEB324"/>
<path d="M21.5611 10.0356L20.6113 14.527L20.6863 14.5429L21.6361 10.0515L21.5611 10.0356Z" fill="#FEB424"/>
<path d="M21.6382 10.0522L20.6885 14.5436L20.7635 14.5595L21.7133 10.0681L21.6382 10.0522Z" fill="#FEB524"/>
<path d="M21.7115 10.0669L20.7617 14.5583L20.8367 14.5742L21.7865 10.0827L21.7115 10.0669Z" fill="#FEB624"/>
<path d="M21.7867 10.082L20.8369 14.5734L20.9119 14.5893L21.8617 10.0979L21.7867 10.082Z" fill="#FEB725"/>
<path d="M21.8599 10.1001L20.9102 14.5915L20.9852 14.6074L21.9349 10.116L21.8599 10.1001Z" fill="#FEB825"/>
<path d="M21.9351 10.1147L20.9854 14.6061L21.0604 14.622L22.0101 10.1306L21.9351 10.1147Z" fill="#FEB925"/>
<path d="M22.0103 10.1299L21.0605 14.6213L21.1356 14.6371L22.0853 10.1457L22.0103 10.1299Z" fill="#FEBA26"/>
<path d="M22.0836 10.1462L21.1338 14.6376L21.2088 14.6535L22.1586 10.1621L22.0836 10.1462Z" fill="#FEBB26"/>
<path d="M22.1607 10.1614L21.2109 14.6528L21.286 14.6686L22.2357 10.1772L22.1607 10.1614Z" fill="#FEBC26"/>
<path d="M22.2339 10.1794L21.2842 14.6708L21.3592 14.6867L22.309 10.1953L22.2339 10.1794Z" fill="#FEBD26"/>
<path d="M22.3085 10.1934L22.3836 10.2084L21.4334 14.7008H21.4317L21.3584 14.6841L22.3085 10.1934Z" fill="#FEBE27"/>
<path d="M22.3837 10.2083L22.4588 10.225L21.5119 14.7007H21.4336L22.3837 10.2083Z" fill="#FEBF27"/>
<path d="M22.4585 10.2251L22.5319 10.2401L21.5901 14.7009H21.5117L22.4585 10.2251Z" fill="#FEC027"/>
<path d="M22.5317 10.24L22.6067 10.2567L21.6682 14.7007H21.5898L22.5317 10.24Z" fill="#FEC128"/>
<path d="M22.6074 10.2566L22.6824 10.2716L21.7456 14.7007H21.6689L22.6074 10.2566Z" fill="#FEC228"/>
<path d="M22.6819 10.2717L22.7569 10.2883L21.8235 14.7007H21.7451L22.6819 10.2717Z" fill="#FFC328"/>
<path d="M22.7567 10.2883L22.8317 10.3033L21.9016 14.7006H21.8232L22.7567 10.2883Z" fill="#FFC428"/>
<path d="M22.8315 10.3035L22.9049 10.3185L21.9797 14.7009H21.9014L22.8315 10.3035Z" fill="#FFC529"/>
<path d="M22.9056 10.3184L22.9806 10.3351L22.0588 14.7008H21.9805L22.9056 10.3184Z" fill="#FFC629"/>
<path d="M22.9804 10.335L23.0554 10.35L22.1353 14.7007H22.0586L22.9804 10.335Z" fill="#FFC729"/>
<path d="M23.0549 10.3501L23.1299 10.3668L22.2131 14.7008H22.1348L23.0549 10.3501Z" fill="#FFC82A"/>
<path d="M23.1307 10.3667L23.2057 10.3817L22.2922 14.7008H22.2139L23.1307 10.3667Z" fill="#FFC92A"/>
<path d="M23.2055 10.3816L23.2805 10.3983L22.3703 14.7007H22.292L23.2055 10.3816Z" fill="#FFCA2A"/>
<path d="M23.2803 10.3984L23.3536 10.4134L22.4485 14.7007H22.3701L23.2803 10.3984Z" fill="#FFCB2A"/>
<path d="M23.3534 10.4133L23.4284 10.4299L22.5266 14.7006H22.4482L23.3534 10.4133Z" fill="#FFCC2B"/>
<path d="M23.4292 10.4299L23.5042 10.4449L22.604 14.7006H22.5273L23.4292 10.4299Z" fill="#FFCD2B"/>
<path d="M23.5037 10.4451L23.5787 10.4618L22.6819 14.7008H22.6035L23.5037 10.4451Z" fill="#FFCE2B"/>
<path d="M23.5784 10.4617L23.6535 10.4767L22.76 14.7007H22.6816L23.5784 10.4617Z" fill="#FFCF2C"/>
<path d="M23.6542 10.4768L23.7276 10.4934L22.8391 14.7008H22.7607L23.6542 10.4768Z" fill="#FFD02C"/>
<path d="M23.7273 10.4934L23.8024 10.5084L22.9172 14.7007H22.8389L23.7273 10.4934Z" fill="#FFD12C"/>
<path d="M23.8021 10.5083L23.8771 10.525L22.9937 14.7007H22.917L23.8021 10.5083Z" fill="#FFD22C"/>
<path d="M23.8776 10.5249L23.9526 10.54L23.0725 14.7006H22.9941L23.8776 10.5249Z" fill="#FFD32D"/>
<path d="M23.9524 10.54L24.0274 10.5567L23.1506 14.7006H23.0723L23.9524 10.54Z" fill="#FFD42D"/>
<path d="M24.0272 10.5566L24.1005 10.5716L23.2287 14.7006H23.1504L24.0272 10.5566Z" fill="#FFD52D"/>
<path d="M24.1003 10.5718L24.1753 10.5885L23.3069 14.7008H23.2285L24.1003 10.5718Z" fill="#FFD62E"/>
<path d="M24.1751 10.5884L24.2501 10.6034L23.385 14.7007H23.3066L24.1751 10.5884Z" fill="#FFD72E"/>
<path d="M24.2509 10.6035L24.3059 10.6151V10.7151L23.4624 14.7008H23.3857L24.2509 10.6035Z" fill="#FFD82E"/>
<path d="M24.3054 11.0835L23.5403 14.7008H23.4619L24.3054 10.7151V11.0835Z" fill="#FFD92E"/>
<path d="M24.3052 11.4536L23.6184 14.7008H23.54L24.3052 11.0835V11.4536Z" fill="#FFDA2F"/>
<path d="M24.3059 11.822L23.6975 14.7007H23.6191L24.3059 11.4536V11.822Z" fill="#FFDB2F"/>
<path d="M23.6973 14.7008L24.3057 11.822V14.7008H23.6973Z" fill="#FFDB2F"/>
</g>
<path d="M22.1051 14.6658C21.9551 14.6658 21.8034 14.6508 21.6517 14.6175L1.75517 10.4118C1.18841 10.2918 0.701669 9.95835 0.384951 9.47329C0.0682342 8.98821 -0.0401164 8.40812 0.0799027 7.84136C0.199922 7.27461 0.533309 6.78786 1.01839 6.47114C1.50513 6.15443 2.08522 6.04774 2.65031 6.1661L22.5468 10.3735C23.1136 10.4935 23.6003 10.8269 23.917 11.312C24.2338 11.797 24.3404 12.3771 24.2221 12.9439C24.1021 13.5107 23.7687 13.9974 23.2836 14.3141C22.9269 14.5458 22.5202 14.6658 22.1034 14.6658H22.1051ZM2.20024 6.4228C1.84352 6.4228 1.49346 6.52615 1.18675 6.72618C0.768346 6.99789 0.481634 7.41629 0.379951 7.90471C0.276601 8.39145 0.369949 8.89153 0.641659 9.30826C0.913369 9.72666 1.33177 10.0134 1.82018 10.1151L21.715 14.3224C22.7219 14.5358 23.7137 13.889 23.927 12.8822C24.1404 11.8754 23.4936 10.8836 22.4885 10.6702L2.5903 6.46281C2.46028 6.43614 2.33026 6.42114 2.20024 6.42114V6.4228Z" fill="white"/>
<mask id="mask3_0_1" style="mask-type:luminance" maskUnits="userSpaceOnUse" x="2" y="3" width="21" height="15">
<path d="M3.40983 13.541C2.42453 14.1823 2.14569 15.501 2.78701 16.4863C3.42834 17.4716 4.74698 17.7504 5.73228 17.1091L21.1851 7.0509C22.1704 6.40957 22.4493 5.09093 21.8079 4.10563C21.1666 3.12033 19.848 2.84149 18.8627 3.48282L3.40983 13.541Z" fill="white"/>
</mask>
<g mask="url(#mask3_0_1)">
<path d="M5.85639 2.84204L2.14746 16.0942V2.84204H5.85639Z" fill="#39006B"/>
<path d="M5.9214 2.84204L2.14746 16.3259V16.0942L5.85639 2.84204H5.9214Z" fill="#39006B"/>
<path d="M5.98641 2.84204L2.14746 16.5576V16.3259L5.9214 2.84204H5.98641Z" fill="#3A006D"/>
<path d="M6.04975 2.84204L2.14746 16.7893V16.5576L5.98641 2.84204H6.04975Z" fill="#3B016F"/>
<path d="M6.11476 2.84204L2.14746 17.021V16.7893L6.04975 2.84204H6.11476Z" fill="#3B0170"/>
<path d="M6.17977 2.84204L2.14746 17.2527V17.021L6.11476 2.84204H6.17977Z" fill="#3C0172"/>
<path d="M6.24478 2.84204L2.14746 17.4844V17.2527L6.17977 2.84204H6.24478Z" fill="#3D0174"/>
<path d="M6.30979 2.84204L2.15413 17.6911L2.14746 17.6895V17.4844L6.24478 2.84204H6.30979Z" fill="#3E0276"/>
<path d="M6.37497 2.84204L2.21597 17.6995L2.1543 17.6911L6.30996 2.84204H6.37497Z" fill="#3F0278"/>
<path d="M6.43983 2.84204L2.27916 17.7078L2.21582 17.6995L6.37482 2.84204H6.43983Z" fill="#400279"/>
<path d="M6.50497 2.84204L2.34097 17.7178L2.2793 17.7078L6.43996 2.84204H6.50497Z" fill="#40037B"/>
<path d="M6.56983 2.84204L2.40416 17.7261L2.34082 17.7178L6.50482 2.84204H6.56983Z" fill="#41037D"/>
<path d="M6.63497 2.84204L2.46597 17.7361L2.4043 17.7261L6.56996 2.84204H6.63497Z" fill="#42037F"/>
<path d="M6.69983 2.84204L2.52916 17.7445L2.46582 17.7361L6.63482 2.84204H6.69983Z" fill="#430380"/>
<path d="M6.76497 2.84204L2.59097 17.7511H2.57764L2.5293 17.7445L6.69996 2.84204H6.76497Z" fill="#430482"/>
<path d="M6.82983 2.84204L2.65583 17.7511H2.59082L6.76482 2.84204H6.82983Z" fill="#440484"/>
<path d="M6.89359 2.84204L2.72126 17.7511H2.65625L6.83025 2.84204H6.89359Z" fill="#450485"/>
<path d="M6.95805 2.84204L2.78571 17.7511H2.7207L6.89304 2.84204H6.95805Z" fill="#460587"/>
<path d="M7.02348 2.84204L2.85114 17.7511H2.78613L6.95847 2.84204H7.02348Z" fill="#460589"/>
<path d="M7.08793 2.84204L2.9156 17.7511H2.85059L7.02292 2.84204H7.08793Z" fill="#47058A"/>
<path d="M7.15336 2.84204L2.98103 17.7511H2.91602L7.08835 2.84204H7.15336Z" fill="#48058C"/>
<path d="M7.21781 2.84204L3.04548 17.7511H2.98047L7.1528 2.84204H7.21781Z" fill="#49068E"/>
<path d="M7.28324 2.84204L3.11091 17.7511H3.0459L7.21823 2.84204H7.28324Z" fill="#49068F"/>
<path d="M7.34867 2.84204L3.17634 17.7511H3.11133L7.28366 2.84204H7.34867Z" fill="#4A0691"/>
<path d="M7.41312 2.84204L3.23912 17.7511H3.17578L7.34811 2.84204H7.41312Z" fill="#4B0692"/>
<path d="M7.47827 2.84204L3.30427 17.7511H3.23926L7.41326 2.84204H7.47827Z" fill="#4C0794"/>
<path d="M7.5437 2.84204L3.3697 17.7511H3.30469L7.47869 2.84204H7.5437Z" fill="#4C0796"/>
<path d="M7.60815 2.84204L3.43415 17.7511H3.36914L7.54314 2.84204H7.60815Z" fill="#4D0797"/>
<path d="M7.67358 2.84204L3.49958 17.7511H3.43457L7.60857 2.84204H7.67358Z" fill="#4E0799"/>
<path d="M7.73637 2.84204L3.56403 17.7511H3.49902L7.67302 2.84204H7.73637Z" fill="#4E089A"/>
<path d="M7.8018 2.84204L3.62946 17.7511H3.56445L7.73679 2.84204H7.8018Z" fill="#4F089C"/>
<path d="M7.86723 2.84204L3.69489 17.7511H3.62988L7.80222 2.84204H7.86723Z" fill="#50089D"/>
<path d="M7.93168 2.84204L3.75935 17.7511H3.69434L7.86667 2.84204H7.93168Z" fill="#50089F"/>
<path d="M7.99711 2.84204L3.82478 17.7511H3.75977L7.9321 2.84204H7.99711Z" fill="#5109A0"/>
<path d="M8.06156 2.84204L3.88923 17.7511H3.82422L7.99655 2.84204H8.06156Z" fill="#5209A2"/>
<path d="M8.12699 2.84204L3.95466 17.7511H3.88965L8.06198 2.84204H8.12699Z" fill="#5209A3"/>
<path d="M8.19144 2.84204L4.01911 17.7511H3.9541L8.12643 2.84204H8.19144Z" fill="#5309A5"/>
<path d="M8.25687 2.84204L4.08287 17.7511H4.01953L8.19186 2.84204H8.25687Z" fill="#540AA6"/>
<path d="M8.32202 2.84204L4.14802 17.7511H4.08301L8.25701 2.84204H8.32202Z" fill="#540AA8"/>
<path d="M8.38647 2.84204L4.21247 17.7511H4.14746L8.32146 2.84204H8.38647Z" fill="#550AA9"/>
<path d="M8.4519 2.84204L4.2779 17.7511H4.21289L8.38689 2.84204H8.4519Z" fill="#560AAA"/>
<path d="M8.51635 2.84204L4.34235 17.7511H4.27734L8.45134 2.84204H8.51635Z" fill="#560BAC"/>
<path d="M8.58012 2.84204L4.40778 17.7511H4.34277L8.51677 2.84204H8.58012Z" fill="#570BAD"/>
<path d="M8.64555 2.84204L4.47321 17.7511H4.4082L8.58054 2.84204H8.64555Z" fill="#580BAF"/>
<path d="M8.71 2.84204L4.53767 17.7511H4.47266L8.64499 2.84204H8.71Z" fill="#580BB0"/>
<path d="M8.77543 2.84204L4.6031 17.7511H4.53809L8.71042 2.84204H8.77543Z" fill="#590BB1"/>
<path d="M8.83988 2.84204L4.66755 17.7511H4.60254L8.77487 2.84204H8.83988Z" fill="#590CB3"/>
<path d="M8.90531 2.84204L4.73298 17.7511H4.66797L8.8403 2.84204H8.90531Z" fill="#5A0CB4"/>
<path d="M8.96977 2.84204L4.79743 17.7511H4.73242L8.90475 2.84204H8.96977Z" fill="#5B0CB5"/>
<path d="M9.03519 2.84204L4.86286 17.7511H4.79785L8.97018 2.84204H9.03519Z" fill="#5B0CB7"/>
<path d="M9.10062 2.84204L4.92662 17.7511H4.86328L9.03561 2.84204H9.10062Z" fill="#5C0DB8"/>
<path d="M9.16479 2.84204L4.99079 17.7511H4.92578L9.09978 2.84204H9.16479Z" fill="#5C0DB9"/>
<path d="M9.23022 2.84204L5.05622 17.7511H4.99121L9.16521 2.84204H9.23022Z" fill="#5D0DBA"/>
<path d="M9.29565 2.84204L5.12165 17.7511H5.05664L9.23064 2.84204H9.29565Z" fill="#5E0DBC"/>
<path d="M9.3601 2.84204L5.1861 17.7511H5.12109L9.29509 2.84204H9.3601Z" fill="#5E0DBD"/>
<path d="M9.42387 2.84204L5.25153 17.7511H5.18652L9.36052 2.84204H9.42387Z" fill="#5F0EBE"/>
<path d="M9.48832 2.84204L5.31599 17.7511H5.25098L9.42331 2.84204H9.48832Z" fill="#5F0EBF"/>
<path d="M9.55375 2.84204L5.38142 17.7511H5.31641L9.48874 2.84204H9.55375Z" fill="#600EC1"/>
<path d="M9.6182 2.84204L5.44587 17.7511H5.38086L9.55319 2.84204H9.6182Z" fill="#600EC2"/>
<path d="M9.68363 2.84204L5.5113 17.7511H5.44629L9.61862 2.84204H9.68363Z" fill="#610EC3"/>
<path d="M9.74906 2.84204L5.57673 17.7511H5.51172L9.68405 2.84204H9.74906Z" fill="#610FC4"/>
<path d="M9.81351 2.84204L5.64118 17.7511H5.57617L9.7485 2.84204H9.81351Z" fill="#620FC5"/>
<path d="M9.87894 2.84204L5.70661 17.7511H5.6416L9.81393 2.84204H9.87894Z" fill="#620FC6"/>
<path d="M9.94341 2.84204L5.7694 17.7511H5.70605L9.8784 2.84204H9.94341Z" fill="#630FC8"/>
<path d="M10.0085 2.84204L5.83454 17.7511H5.76953L9.94353 2.84204H10.0085Z" fill="#640FC9"/>
<path d="M10.074 2.84204L5.89997 17.7511H5.83496L10.009 2.84204H10.074Z" fill="#640FCA"/>
<path d="M10.1384 2.84204L5.96442 17.7511H5.89941L10.0734 2.84204H10.1384Z" fill="#6510CB"/>
<path d="M10.2039 2.84204L6.02985 17.7511H5.96484L10.1388 2.84204H10.2039Z" fill="#6510CC"/>
<path d="M10.2666 2.84204L6.09431 17.7511H6.0293L10.2033 2.84204H10.2666Z" fill="#6610CD"/>
<path d="M10.3321 2.84204L6.15974 17.7511H6.09473L10.2671 2.84204H10.3321Z" fill="#6610CE"/>
<path d="M10.3975 2.84204L6.22517 17.7511H6.16016L10.3325 2.84204H10.3975Z" fill="#6610CF"/>
<path d="M10.462 2.84204L6.28962 17.7511H6.22461L10.3969 2.84204H10.462Z" fill="#6711D0"/>
<path d="M10.5274 2.84204L6.35505 17.7511H6.29004L10.4624 2.84204H10.5274Z" fill="#6711D1"/>
<path d="M10.5918 2.84204L6.4195 17.7511H6.35449L10.5268 2.84204H10.5918Z" fill="#6811D2"/>
<path d="M10.6573 2.84204L6.48493 17.7511H6.41992L10.5923 2.84204H10.6573Z" fill="#6811D3"/>
<path d="M10.7217 2.84204L6.54939 17.7511H6.48438L10.6567 2.84204H10.7217Z" fill="#6911D4"/>
<path d="M10.7871 2.84204L6.61315 17.7511H6.5498L10.7221 2.84204H10.7871Z" fill="#6911D5"/>
<path d="M10.8523 2.84204L6.67829 17.7511H6.61328L10.7873 2.84204H10.8523Z" fill="#6A11D6"/>
<path d="M10.9177 2.84204L6.74372 17.7511H6.67871L10.8527 2.84204H10.9177Z" fill="#6A12D7"/>
<path d="M10.9822 2.84204L6.80817 17.7511H6.74316L10.9172 2.84204H10.9822Z" fill="#6B12D8"/>
<path d="M11.0476 2.84204L6.8736 17.7511H6.80859L10.9826 2.84204H11.0476Z" fill="#6B12D9"/>
<path d="M11.1104 2.84204L6.93806 17.7511H6.87305L11.047 2.84204H11.1104Z" fill="#6B12DA"/>
<path d="M11.1758 2.84204L7.00349 17.7511H6.93848L11.1108 2.84204H11.1758Z" fill="#6C12DB"/>
<path d="M11.2403 2.84204L7.06794 17.7511H7.00293L11.1753 2.84204H11.2403Z" fill="#6C12DC"/>
<path d="M11.3057 2.84204L7.13337 17.7511H7.06836L11.2407 2.84204H11.3057Z" fill="#6D13DD"/>
<path d="M11.3702 2.84204L7.19782 17.7511H7.13281L11.3051 2.84204H11.3702Z" fill="#7917F7"/>
<path d="M11.4356 2.84204L7.26325 17.7511H7.19824L11.3706 2.84204H11.4356Z" fill="#7917F7"/>
<path d="M11.501 2.84204L7.32868 17.7511H7.26367L11.436 2.84204H11.501Z" fill="#6E13DF"/>
<path d="M11.5655 2.84204L7.39314 17.7511H7.32812L11.5005 2.84204H11.5655Z" fill="#6E13E0"/>
<path d="M11.6309 2.84204L7.4569 17.7511H7.39355L11.5659 2.84204H11.6309Z" fill="#6F13E1"/>
<path d="M11.696 2.84204L7.52204 17.7511H7.45703L11.631 2.84204H11.696Z" fill="#7917F7"/>
<path d="M11.7605 2.84204L7.58649 17.7511H7.52148L11.6955 2.84204H11.7605Z" fill="#7917F7"/>
<path d="M11.8259 2.84204L7.65192 17.7511H7.58691L11.7609 2.84204H11.8259Z" fill="#7014E3"/>
<path d="M11.8904 2.84204L7.71638 17.7511H7.65137L11.8254 2.84204H11.8904Z" fill="#7014E4"/>
<path d="M11.9541 2.84204L7.78181 17.7511H7.7168L11.8908 2.84204H11.9541Z" fill="#7014E5"/>
<path d="M12.0186 2.84204L7.84626 17.7511H7.78125L11.9536 2.84204H12.0186Z" fill="#7917F7"/>
<path d="M12.084 2.84204L7.91169 17.7511H7.84668L12.019 2.84204H12.084Z" fill="#7917F7"/>
<path d="M12.1495 2.84204L7.97712 17.7511H7.91211L12.0844 2.84204H12.1495Z" fill="#7114E7"/>
<path d="M12.2139 2.84204L8.04157 17.7511H7.97656L12.1489 2.84204H12.2139Z" fill="#7917F7"/>
<path d="M12.2793 2.84204L8.107 17.7511H8.04199L12.2143 2.84204H12.2793Z" fill="#7917F7"/>
<path d="M12.3438 2.84204L8.17146 17.7511H8.10645L12.2788 2.84204H12.3438Z" fill="#7215E9"/>
<path d="M12.4092 2.84204L8.23689 17.7511H8.17188L12.3442 2.84204H12.4092Z" fill="#7917F7"/>
<path d="M12.4737 2.84204L8.29967 17.7511H8.23633L12.4087 2.84204H12.4737Z" fill="#7917F7"/>
<path d="M12.5388 2.84204L8.36481 17.7511H8.2998L12.4738 2.84204H12.5388Z" fill="#7315EB"/>
<path d="M12.6042 2.84204L8.43024 17.7511H8.36523L12.5392 2.84204H12.6042Z" fill="#7315EC"/>
<path d="M12.6687 2.84204L8.4947 17.7511H8.42969L12.6037 2.84204H12.6687Z" fill="#7415EC"/>
<path d="M12.7341 2.84204L8.56013 17.7511H8.49512L12.6691 2.84204H12.7341Z" fill="#7917F7"/>
<path d="M12.7979 2.84204L8.62556 17.7511H8.56055L12.7345 2.84204H12.7979Z" fill="#7917F7"/>
<path d="M12.8623 2.84204L8.69001 17.7511H8.625L12.7973 2.84204H12.8623Z" fill="#7415EE"/>
<path d="M12.9278 2.84204L8.75544 17.7511H8.69043L12.8628 2.84204H12.9278Z" fill="#7515EE"/>
<path d="M12.9922 2.84204L8.81989 17.7511H8.75488L12.9272 2.84204H12.9922Z" fill="#7516EF"/>
<path d="M13.0577 2.84204L8.88532 17.7511H8.82031L12.9926 2.84204H13.0577Z" fill="#7917F7"/>
<path d="M13.1221 2.84204L8.94978 17.7511H8.88477L13.0571 2.84204H13.1221Z" fill="#7917F7"/>
<path d="M13.1875 2.84204L9.01521 17.7511H8.9502L13.1225 2.84204H13.1875Z" fill="#7917F7"/>
<path d="M13.253 2.84204L9.08064 17.7511H9.01562L13.188 2.84204H13.253Z" fill="#7917F7"/>
<path d="M13.3174 2.84204L9.14342 17.7511H9.08008L13.2524 2.84204H13.3174Z" fill="#7917F7"/>
<path d="M13.3826 2.84204L9.20857 17.7511H9.14355L13.3176 2.84204H13.3826Z" fill="#7917F7"/>
<path d="M13.448 2.84204L9.27399 17.7511H9.20898L13.383 2.84204H13.448Z" fill="#7917F7"/>
<path d="M13.5124 2.84204L9.33845 17.7511H9.27344L13.4474 2.84204H13.5124Z" fill="#7917F7"/>
<path d="M13.5779 2.84204L9.40388 17.7511H9.33887L13.5129 2.84204H13.5779Z" fill="#7917F7"/>
<path d="M13.6407 2.84204L9.46833 17.7511H9.40332L13.5773 2.84204H13.6407Z" fill="#7917F7"/>
<path d="M13.7061 2.84204L9.53376 17.7511H9.46875L13.6411 2.84204H13.7061Z" fill="#7917F7"/>
<path d="M13.7705 2.84204L9.59821 17.7511H9.5332L13.7055 2.84204H13.7705Z" fill="#7917F7"/>
<path d="M13.836 2.84204L9.66364 17.7511H9.59863L13.771 2.84204H13.836Z" fill="#7716F5"/>
<path d="M13.9014 2.84204L9.72907 17.7511H9.66406L13.8364 2.84204H13.9014Z" fill="#2C6C54"/>
<path d="M13.9659 2.84204L9.79353 17.7511H9.72852L13.9008 2.84204H13.9659Z" fill="#2C6C54"/>
<path d="M14.0313 2.84204L9.85896 17.7511H9.79395L13.9663 2.84204H14.0313Z" fill="#7917F7"/>
<path d="M14.0957 2.84204L9.92341 17.7511H9.8584L14.0307 2.84204H14.0957Z" fill="#7917F7"/>
<path d="M14.1612 2.84204L9.98717 17.7511H9.92383L14.0962 2.84204H14.1612Z" fill="#7917F7"/>
<path d="M14.2263 2.84204L10.0523 17.7511H9.9873L14.1613 2.84204H14.2263Z" fill="#7917F7"/>
<path d="M14.2908 2.84204L10.1168 17.7511H10.0518L14.2258 2.84204H14.2908Z" fill="#7817F7"/>
<path d="M14.3562 2.84204L10.1822 17.7511H10.1172L14.2912 2.84204H14.3562Z" fill="#7817F7"/>
<path d="M14.4207 2.84204L10.2467 17.7511H10.1816L14.3556 2.84204H14.4207Z" fill="#7917F7"/>
<path d="M14.4844 2.84204L10.3121 17.7511H10.2471L14.4211 2.84204H14.4844Z" fill="#7917F7"/>
<path d="M14.5498 2.84204L10.3775 17.7511H10.3125L14.4848 2.84204H14.5498Z" fill="#7917F7"/>
<path d="M14.6143 2.84204L10.442 17.7511H10.377L14.5493 2.84204H14.6143Z" fill="#7917F7"/>
<path d="M14.6797 2.84204L10.5074 17.7511H10.4424L14.6147 2.84204H14.6797Z" fill="#7917F7"/>
<path d="M14.7442 2.84204L10.5718 17.7511H10.5068L14.6792 2.84204H14.7442Z" fill="#7917F7"/>
<path d="M14.8096 2.84204L10.6373 17.7511H10.5723L14.7446 2.84204H14.8096Z" fill="#7917F7"/>
<path d="M14.8741 2.84204L10.7017 17.7511H10.6367L14.8091 2.84204H14.8741Z" fill="#7917F7"/>
<path d="M14.9395 2.84204L10.7672 17.7511H10.7021L14.8745 2.84204H14.9395Z" fill="#7917F7"/>
<path d="M15.0049 2.84204L10.8309 17.7511H10.7676L14.9399 2.84204H15.0049Z" fill="#7917F7"/>
<path d="M15.0658 2.84204L10.8934 17.7511H10.8301L15.0041 2.84204H15.0658Z" fill="#7917F7"/>
<path d="M15.1292 2.84204L10.9552 17.7511H10.8936L15.0659 2.84204H15.1292Z" fill="#7918F8"/>
<path d="M15.1908 2.84204L11.0184 17.7511H10.9551L15.1291 2.84204H15.1908Z" fill="#7A19F8"/>
<path d="M15.2526 2.84204L11.0802 17.7511H11.0186L15.1909 2.84204H15.2526Z" fill="#7A1AF8"/>
<path d="M15.3158 2.84204L11.1418 17.7511H11.0801L15.2524 2.84204H15.3158Z" fill="#7B1BF8"/>
<path d="M15.3783 2.84204L11.2059 17.7511H11.1426L15.3166 2.84204H15.3783Z" fill="#7B1CF8"/>
<path d="M15.4391 2.84204L11.2668 17.7511H11.2051L15.3774 2.84204H15.4391Z" fill="#7B1DF8"/>
<path d="M15.5033 2.84204L11.3293 17.7511H11.2676L15.4399 2.84204H15.5033Z" fill="#7C1EF8"/>
<path d="M15.5648 2.84204L11.3924 17.7511H11.3291L15.5031 2.84204H15.5648Z" fill="#7C1FF8"/>
<path d="M15.6283 2.84204L11.4543 17.7511H11.3926L15.5649 2.84204H15.6283Z" fill="#7D20F9"/>
<path d="M15.6898 2.84204L11.5158 17.7511H11.4541L15.6281 2.84204H15.6898Z" fill="#7D21F9"/>
<path d="M15.7513 2.84204L11.579 17.7511H11.5156L15.6896 2.84204H15.7513Z" fill="#7E22F9"/>
<path d="M15.8148 2.84204L11.6408 17.7511H11.5791L15.7514 2.84204H15.8148Z" fill="#7E23F9"/>
<path d="M15.8763 2.84204L11.704 17.7511H11.6406L15.8146 2.84204H15.8763Z" fill="#7E24F9"/>
<path d="M15.9381 2.84204L11.7658 17.7511H11.7041L15.8764 2.84204H15.9381Z" fill="#7F25F9"/>
<path d="M16.0013 2.84204L11.8273 17.7511H11.7656L15.938 2.84204H16.0013Z" fill="#7F26F9"/>
<path d="M16.0628 2.84204L11.8905 17.7511H11.8271L16.0011 2.84204H16.0628Z" fill="#8027F9"/>
<path d="M16.1246 2.84204L11.9523 17.7511H11.8906L16.063 2.84204H16.1246Z" fill="#8028F9"/>
<path d="M16.1878 2.84204L12.0138 17.7511H11.9521L16.1245 2.84204H16.1878Z" fill="#8029F9"/>
<path d="M16.2493 2.84204L12.077 17.7511H12.0137L16.1877 2.84204H16.2493Z" fill="#812AF9"/>
<path d="M16.3112 2.84204L12.1388 17.7511H12.0771L16.2495 2.84204H16.3112Z" fill="#812BF9"/>
<path d="M16.3743 2.84204L12.2003 17.7511H12.1387L16.311 2.84204H16.3743Z" fill="#822CF9"/>
<path d="M16.4368 2.84204L12.2645 17.7511H12.2012L16.3752 2.84204H16.4368Z" fill="#822DF9"/>
<path d="M16.4993 2.84204L12.3253 17.7511H12.2637L16.436 2.84204H16.4993Z" fill="#822EF9"/>
<path d="M16.5618 2.84204L12.3895 17.7511H12.3262L16.5002 2.84204H16.5618Z" fill="#832FF9"/>
<path d="M16.6227 2.84204L12.4503 17.7511H12.3887L16.561 2.84204H16.6227Z" fill="#8330F9"/>
<path d="M16.6868 2.84204L12.5128 17.7511H12.4512L16.6235 2.84204H16.6868Z" fill="#8431F9"/>
<path d="M16.7484 2.84204L12.576 17.7511H12.5127L16.6867 2.84204H16.7484Z" fill="#8432FA"/>
<path d="M16.8102 2.84204L12.6378 17.7511H12.5762L16.7485 2.84204H16.8102Z" fill="#8533FA"/>
<path d="M16.8734 2.84204L12.6994 17.7511H12.6377L16.81 2.84204H16.8734Z" fill="#8534FA"/>
<path d="M16.9349 2.84204L12.7626 17.7511H12.6992L16.8732 2.84204H16.9349Z" fill="#8535FA"/>
<path d="M16.9967 2.84204L12.8244 17.7511H12.7627L16.935 2.84204H16.9967Z" fill="#8636FA"/>
<path d="M17.0599 2.84204L12.8859 17.7511H12.8242L16.9966 2.84204H17.0599Z" fill="#8637FA"/>
<path d="M17.1214 2.84204L12.9491 17.7511H12.8857L17.0597 2.84204H17.1214Z" fill="#8738FA"/>
<path d="M17.1849 2.84204L13.0109 17.7511H12.9492L17.1216 2.84204H17.1849Z" fill="#8739FA"/>
<path d="M17.2464 2.84204L13.0741 17.7511H13.0107L17.1847 2.84204H17.2464Z" fill="#873AFA"/>
<path d="M17.3082 2.84204L13.1359 17.7511H13.0742L17.2466 2.84204H17.3082Z" fill="#883BFA"/>
<path d="M17.3714 2.84204L13.1974 17.7511H13.1357L17.3081 2.84204H17.3714Z" fill="#883CFA"/>
<path d="M17.4329 2.84204L13.2606 17.7511H13.1973L17.3713 2.84204H17.4329Z" fill="#893DFA"/>
<path d="M17.4948 2.84204L13.3224 17.7511H13.2607L17.4331 2.84204H17.4948Z" fill="#893EFA"/>
<path d="M17.5579 2.84204L13.3839 17.7511H13.3223L17.4946 2.84204H17.5579Z" fill="#8A3FFA"/>
<path d="M17.6204 2.84204L13.4481 17.7511H13.3848L17.5588 2.84204H17.6204Z" fill="#8A40FA"/>
<path d="M17.6813 2.84204L13.5089 17.7511H13.4473L17.6196 2.84204H17.6813Z" fill="#8A41FA"/>
<path d="M17.7454 2.84204L13.5714 17.7511H13.5098L17.6821 2.84204H17.7454Z" fill="#8B42FA"/>
<path d="M17.807 2.84204L13.6346 17.7511H13.5713L17.7453 2.84204H17.807Z" fill="#8B43FA"/>
<path d="M17.8704 2.84204L13.6964 17.7511H13.6348L17.8071 2.84204H17.8704Z" fill="#8C44FB"/>
<path d="M17.932 2.84204L13.7596 17.7511H13.6963L17.8703 2.84204H17.932Z" fill="#8C45FB"/>
<path d="M17.9938 2.84204L13.8214 17.7511H13.7598L17.9321 2.84204H17.9938Z" fill="#8C46FB"/>
<path d="M18.057 2.84204L13.883 17.7511H13.8213L17.9936 2.84204H18.057Z" fill="#8D47FB"/>
<path d="M18.1185 2.84204L13.9462 17.7511H13.8828L18.0568 2.84204H18.1185Z" fill="#8D48FB"/>
<path d="M18.1803 2.84204L14.008 17.7511H13.9463L18.1186 2.84204H18.1803Z" fill="#8E49FB"/>
<path d="M18.2435 2.84204L14.0695 17.7511H14.0078L18.1801 2.84204H18.2435Z" fill="#8E4AFB"/>
<path d="M18.305 2.84204L14.1327 17.7511H14.0693L18.2433 2.84204H18.305Z" fill="#8E4BFB"/>
<path d="M18.3668 2.84204L14.1945 17.7511H14.1328L18.3051 2.84204H18.3668Z" fill="#8F4CFB"/>
<path d="M18.43 2.84204L14.256 17.7511H14.1943L18.3667 2.84204H18.43Z" fill="#8F4DFB"/>
<path d="M18.4915 2.84204L14.3192 17.7511H14.2559L18.4299 2.84204H18.4915Z" fill="#904EFB"/>
<path d="M18.555 2.84204L14.381 17.7511H14.3193L18.4917 2.84204H18.555Z" fill="#904FFB"/>
<path d="M18.6165 2.84204L14.4425 17.7511H14.3809L18.5549 2.84204H18.6165Z" fill="#9150FB"/>
<path d="M18.6781 2.84204L14.5057 17.7511H14.4424L18.6164 2.84204H18.6781Z" fill="#9151FB"/>
<path d="M18.7415 2.84204L14.5675 17.7511H14.5059L18.6782 2.84204H18.7415Z" fill="#9152FB"/>
<path d="M18.8031 2.84204L14.6307 17.7511H14.5674L18.7414 2.84204H18.8031Z" fill="#9253FB"/>
<path d="M18.8649 2.84204L14.6925 17.7511H14.6309L18.8032 2.84204H18.8649Z" fill="#9254FB"/>
<path d="M18.9281 2.84204L14.7541 17.7511H14.6924L18.8647 2.84204H18.9281Z" fill="#9355FB"/>
<path d="M18.9906 2.84204L14.8182 17.7511H14.7549L18.9289 2.84204H18.9906Z" fill="#9357FC"/>
<path d="M19.0514 2.84204L14.8791 17.7511H14.8174L18.9897 2.84204H19.0514Z" fill="#9358FC"/>
<path d="M19.1156 2.84204L14.9416 17.7511H14.8799L19.0522 2.84204H19.1156Z" fill="#9459FC"/>
<path d="M19.1771 2.84204L15.0048 17.7511H14.9414L19.1154 2.84204H19.1771Z" fill="#945AFC"/>
<path d="M19.2389 2.84204L15.0666 17.7511H15.0049L19.1772 2.84204H19.2389Z" fill="#955BFC"/>
<path d="M19.3021 2.84204L15.1281 17.7511H15.0664L19.2387 2.84204H19.3021Z" fill="#955CFC"/>
<path d="M19.3636 2.84204L15.1913 17.7511H15.1279L19.3019 2.84204H19.3636Z" fill="#955DFC"/>
<path d="M19.4271 2.84204L15.2531 17.7511H15.1914L19.3637 2.84204H19.4271Z" fill="#965EFC"/>
<path d="M19.4886 2.84204L15.3163 17.7511H15.2529L19.4269 2.84204H19.4886Z" fill="#965FFC"/>
<path d="M19.5504 2.84204L15.3781 17.7511H15.3164L19.4887 2.84204H19.5504Z" fill="#9760FC"/>
<path d="M19.6136 2.84204L15.4396 17.7511H15.3779L19.5503 2.84204H19.6136Z" fill="#9761FC"/>
<path d="M19.6751 2.84204L15.5028 17.7511H15.4395L19.6135 2.84204H19.6751Z" fill="#9862FC"/>
<path d="M19.7369 2.84204L15.5646 17.7511H15.5029L19.6753 2.84204H19.7369Z" fill="#9863FC"/>
<path d="M19.8001 2.84204L15.6261 17.7511H15.5645L19.7368 2.84204H19.8001Z" fill="#9864FC"/>
<path d="M19.8617 2.84204L15.6893 17.7511H15.626L19.8 2.84204H19.8617Z" fill="#9965FC"/>
<path d="M19.9235 2.84204L15.7511 17.7511H15.6895L19.8618 2.84204H19.9235Z" fill="#9966FC"/>
<path d="M19.9867 2.84204L15.8127 17.7511H15.751L19.9233 2.84204H19.9867Z" fill="#9A67FC"/>
<path d="M20.0492 2.84204L15.8768 17.7511H15.8135L19.9875 2.84204H20.0492Z" fill="#9A68FC"/>
<path d="M20.1117 2.84204L15.9377 17.7511H15.876L20.0483 2.84204H20.1117Z" fill="#9A69FD"/>
<path d="M20.1742 2.84204L16.0018 17.7511H15.9385L20.1125 2.84204H20.1742Z" fill="#9B6AFD"/>
<path d="M20.235 2.84204L16.0627 17.7511H16.001L20.1733 2.84204H20.235Z" fill="#9B6BFD"/>
<path d="M20.2992 2.84204L16.1252 17.7511H16.0635L20.2358 2.84204H20.2992Z" fill="#9C6CFD"/>
<path d="M20.3607 2.84204L16.1883 17.7511H16.125L20.299 2.84204H20.3607Z" fill="#9C6DFD"/>
<path d="M20.4225 2.84204L16.2502 17.7511H16.1885L20.3608 2.84204H20.4225Z" fill="#9C6EFD"/>
<path d="M20.4857 2.84204L16.3117 17.7511H16.25L20.4223 2.84204H20.4857Z" fill="#9D6FFD"/>
<path d="M20.5472 2.84204L16.3749 17.7511H16.3115L20.4855 2.84204H20.5472Z" fill="#9D70FD"/>
<path d="M20.609 2.84204L16.4367 17.7511H16.375L20.5473 2.84204H20.609Z" fill="#9E71FD"/>
<path d="M20.6722 2.84204L16.4982 17.7511H16.4365L20.6089 2.84204H20.6722Z" fill="#9E72FD"/>
<path d="M20.7337 2.84204L16.5614 17.7511H16.498L20.672 2.84204H20.7337Z" fill="#9F73FD"/>
<path d="M20.7972 2.84204L16.6232 17.7511H16.5615L20.7339 2.84204H20.7972Z" fill="#9F74FD"/>
<path d="M20.8587 2.84204L16.6864 17.7511H16.623L20.797 2.84204H20.8587Z" fill="#9F75FD"/>
<path d="M20.9205 2.84204L16.7482 17.7511H16.6865L20.8589 2.84204H20.9205Z" fill="#A076FD"/>
<path d="M20.9837 2.84204L16.8097 17.7511H16.748L20.9204 2.84204H20.9837Z" fill="#A077FD"/>
<path d="M21.0452 2.84204L16.8729 17.7511H16.8096L20.9836 2.84204H21.0452Z" fill="#A178FD"/>
<path d="M21.1071 2.84204L16.9347 17.7511H16.873L21.0454 2.84204H21.1071Z" fill="#A179FD"/>
<path d="M21.1702 2.84204L16.9962 17.7511H16.9346L21.1069 2.84204H21.1702Z" fill="#A17AFD"/>
<path d="M21.2318 2.84204L17.0594 17.7511H16.9961L21.1701 2.84204H21.2318Z" fill="#A27BFE"/>
<path d="M21.2936 2.84204L17.1212 17.7511H17.0596L21.2319 2.84204H21.2936Z" fill="#A27CFE"/>
<path d="M21.3568 2.84204L17.1828 17.7511H17.1211L21.2934 2.84204H21.3568Z" fill="#A37DFE"/>
<path d="M21.4193 2.84204L17.2469 17.7511H17.1836L21.3576 2.84204H21.4193Z" fill="#A37EFE"/>
<path d="M21.4818 2.84204L17.3078 17.7511H17.2461L21.4184 2.84204H21.4818Z" fill="#A47FFE"/>
<path d="M21.5443 2.84204L17.3703 17.7511H17.3086L21.4826 2.84204H21.5443Z" fill="#A480FE"/>
<path d="M21.6058 2.84204L17.4335 17.7511H17.3701L21.5441 2.84204H21.6058Z" fill="#A481FE"/>
<path d="M21.6693 2.84204L17.4953 17.7511H17.4336L21.6059 2.84204H21.6693Z" fill="#A582FE"/>
<path d="M21.7308 2.84204L17.5585 17.7511H17.4951L21.6691 2.84204H21.7308Z" fill="#A583FE"/>
<path d="M21.7926 2.84204L17.6203 17.7511H17.5586L21.7309 2.84204H21.7926Z" fill="#A684FE"/>
<path d="M21.8558 2.84204L17.6818 17.7511H17.6201L21.7924 2.84204H21.8558Z" fill="#A685FE"/>
<path d="M21.9173 2.84204L17.745 17.7511H17.6816L21.8556 2.84204H21.9173Z" fill="#A686FE"/>
<path d="M21.9791 2.84204L17.8068 17.7511H17.7451L21.9174 2.84204H21.9791Z" fill="#A787FE"/>
<path d="M22.0206 2.84204L22.0406 2.84537L17.8683 17.7511H17.8066L21.979 2.84204H22.0206Z" fill="#A788FE"/>
<path d="M22.0405 2.84546L22.1005 2.8538L17.9315 17.7512H17.8682L22.0405 2.84546Z" fill="#A889FE"/>
<path d="M22.1006 2.85376L22.1606 2.86376L17.9933 17.7511H17.9316L22.1006 2.85376Z" fill="#A88AFE"/>
<path d="M22.1605 2.86377L22.2205 2.87211L18.0548 17.7512H17.9932L22.1605 2.86377Z" fill="#A88BFE"/>
<path d="M22.2204 2.87207L22.2804 2.8804L18.118 17.7512H18.0547L22.2204 2.87207Z" fill="#A98CFE"/>
<path d="M22.2805 2.88037L22.3405 2.8887L18.1798 17.7511H18.1182L22.2805 2.88037Z" fill="#A98DFF"/>
<path d="M22.3404 2.88892L22.4004 2.89726L18.243 17.7513H18.1797L22.3404 2.88892Z" fill="#AA8EFF"/>
<path d="M22.4005 2.89722L22.4505 2.90556V2.94223L18.3048 17.7513H18.2432L22.4005 2.89722Z" fill="#AA8FFF"/>
<path d="M22.4503 3.16551L18.3664 17.7512H18.3047L22.4503 2.94214V3.16551Z" fill="#AB90FF"/>
<path d="M22.4512 3.38723L18.4305 17.7512H18.3672L22.4512 3.16553V3.38723Z" fill="#AB91FF"/>
<path d="M22.4503 3.61058L18.4914 17.7512H18.4297L22.4503 3.38721V3.61058Z" fill="#AB92FF"/>
<path d="M22.4512 3.8323L18.5539 17.7512H18.4922L22.4512 3.6106V3.8323Z" fill="#AC93FF"/>
<path d="M22.451 4.05564L18.6171 17.7512H18.5537L22.451 3.83228V4.05564Z" fill="#AC94FF"/>
<path d="M22.4511 4.27736L18.6789 17.7512H18.6172L22.4511 4.05566V4.27736Z" fill="#AD95FF"/>
<path d="M22.451 4.50071L18.7404 17.7512H18.6787L22.451 4.27734V4.50071Z" fill="#AD96FF"/>
<path d="M18.7402 17.7512L22.4508 4.50073V17.7512H18.7402Z" fill="#AD96FF"/>
</g>
<path d="M4.57534 17.6129C4.41699 17.6129 4.25696 17.5963 4.0986 17.5629C3.50184 17.4362 2.98842 17.0862 2.6567 16.5744C2.32332 16.0627 2.20997 15.4526 2.33665 14.8558C2.46334 14.2591 2.8134 13.7457 3.32514 13.4139L18.7776 3.35228C19.8344 2.6655 21.2513 2.96555 21.9398 4.02072C22.6266 5.07589 22.3265 6.49445 21.2713 7.18289L5.81888 17.2412C5.44382 17.4863 5.01375 17.6113 4.57701 17.6113L4.57534 17.6129ZM20.0211 3.2956C19.6528 3.2956 19.2794 3.39895 18.9476 3.61399L3.49517 13.674C3.05343 13.9607 2.75005 14.4041 2.6417 14.9192C2.53335 15.4343 2.6317 15.961 2.91841 16.4027C3.51184 17.3146 4.73704 17.5729 5.64718 16.9795L21.0996 6.92118C22.0115 6.32775 22.2698 5.10422 21.6764 4.19241C21.298 3.61232 20.6662 3.29727 20.0195 3.29727L20.0211 3.2956Z" fill="white"/>
</g>
<path d="M101 17.5922H105.944C110.468 17.5922 113.23 14.7898 113.23 10.4061C113.23 6.02235 110.468 3.21997 105.944 3.21997H101V17.5922ZM103.882 15.07V5.74211H105.924C108.727 5.74211 110.328 7.56365 110.328 10.4061C110.328 13.2285 108.727 15.07 105.944 15.07H103.882Z" fill="#7F26F9"/>
<path d="M115.653 10.4063C115.653 14.75 118.495 17.8126 122.458 17.8126C126.402 17.8126 129.244 14.75 129.244 10.4063C129.244 6.0626 126.402 3 122.458 3C118.495 3 115.653 6.0626 115.653 10.4063ZM126.282 10.4063C126.282 13.3488 124.7 15.2304 122.458 15.2304C120.196 15.2304 118.615 13.3488 118.615 10.4063C118.615 7.46378 120.196 5.58219 122.458 5.58219C124.7 5.58219 126.282 7.46378 126.282 10.4063Z" fill="#7F26F9"/>
<path d="M134.497 10.4063C134.497 7.4838 136.038 5.58219 138.24 5.58219C139.801 5.58219 140.942 6.56302 141.342 8.16438L144.105 7.2436C143.264 4.64139 141.222 3 138.24 3C134.357 3 131.534 6.0626 131.534 10.4063C131.534 14.75 134.357 17.8126 138.24 17.8126C141.222 17.8126 143.264 16.1712 144.105 13.569L141.342 12.6482C140.942 14.2495 139.801 15.2304 138.24 15.2304C136.038 15.2304 134.497 13.3288 134.497 10.4063Z" fill="#7F26F9"/>
<path d="M145.683 14.9702C146.844 16.7116 149.366 17.8126 151.788 17.8126C154.851 17.8126 157.413 16.0711 157.413 13.1686C157.413 10.026 154.611 9.44546 152.329 8.94504C150.447 8.52468 149.406 8.3045 149.406 7.18355C149.406 6.14266 150.367 5.46209 151.768 5.46209C153.37 5.46209 154.491 6.26277 155.331 7.44377L157.273 5.54215C156.272 4.10093 154.33 3 151.848 3C148.866 3 146.504 4.72146 146.504 7.46378C146.504 10.3062 148.826 10.9868 150.968 11.4872C153.129 11.9676 154.491 12.1478 154.491 13.4689C154.491 14.6899 153.39 15.3505 151.888 15.3505C150.307 15.3505 148.766 14.5098 147.705 13.0085L145.683 14.9702Z" fill="#7F26F9"/>
</svg>
